<svg xmlns="http://www.w3.org/2000/svg" viewBox="0 0 381 112" width="381" height="112" role="img" aria-label="Brunetti Cutz">
  <defs>
    <linearGradient id="lkGold" gradientUnits="userSpaceOnUse" x1="0" y1="10" x2="0" y2="102">
      <stop offset="0%" stop-color="#f1e2b0"></stop>
      <stop offset="20%" stop-color="#e9d7a0"></stop>
      <stop offset="52%" stop-color="#c9a14e"></stop>
      <stop offset="80%" stop-color="#9c7a32"></stop>
      <stop offset="100%" stop-color="#7a5e26"></stop>
    </linearGradient>
    <radialGradient id="lkBadge" cx="35%" cy="28%" r="75%">
      <stop offset="0%" stop-color="#1e1e22"></stop>
      <stop offset="100%" stop-color="#0a0a0d"></stop>
    </radialGradient>
  </defs>
  <circle cx="56" cy="56" r="54" fill="none" stroke="#000000" stroke-width="6" opacity="0.35"></circle>
  <circle cx="56" cy="56" r="52" fill="url(#lkBadge)"></circle>
  <circle cx="56" cy="56" r="51.5" fill="none" stroke="url(#lkGold)" stroke-width="1.4" opacity="0.85"></circle>
  <circle cx="56" cy="56" r="44.5" fill="none" stroke="#c9a14e" stroke-width="0.7" opacity="0.4"></circle>
  <g fill="url(#lkGold)">
    <path d="M39.08 48.85L38.44 48.85Q39.51 47.01 41.25 45.65Q43 44.29 45.27 43.84L45.27 43.84Q45.59 43.36 45.77 42.77Q45.96 42.19 45.96 41.39L45.96 41.39L45.96 33.04Q47.45 31.15 49.51 29.65Q51.56 28.16 54.07 27.33L54.07 27.33L58.36 32.37L55.05 34.72Q56.09 35.09 57 35.63Q57.91 36.16 58.71 36.80L58.71 36.80L58.71 43.49L49.77 48.11Q48.57 47.47 47.25 47.13Q45.93 46.80 44.57 46.80L44.57 46.80Q42.79 46.80 41.41 47.36Q40.04 47.92 39.08 48.85L39.08 48.85ZM39.88 45.47L39.88 45.47L39.61 44.83Q40.73 44.19 40.99 42.95Q41.24 41.71 41.24 40.03L41.24 40.03L41.24 38.21L40.44 38.21Q39.69 38.21 39.23 38.60Q38.76 38.99 38.89 39.76L38.89 39.76L38.39 39.76Q37.99 39.01 37.99 38.19L37.99 38.19Q37.99 37.23 38.44 36.59Q38.89 35.95 39.56 35.65L39.56 35.65Q39.96 35.47 40.39 35.37Q40.81 35.28 41.24 35.23L41.24 35.23L41.24 34.53L41.24 34.53Q41.24 33.41 41.71 32.89Q42.17 32.37 42.84 31.95L42.84 31.95Q43.99 31.25 45.11 30.53L45.11 30.53Q44.95 30.53 44.81 30.53L44.81 30.53Q43.88 30.53 43.16 30.23Q42.44 29.92 41.51 29.92L41.51 29.92Q40.81 29.92 40.33 30.24Q39.85 30.56 39.67 31.09L39.67 31.09L39.03 31.09Q39.37 30.27 40.01 29.51Q40.65 28.75 41.57 28.25Q42.49 27.76 43.67 27.76L43.67 27.76Q44.60 27.76 45.48 28.01Q46.36 28.27 47.29 28.27L47.29 28.27Q47.99 28.27 48.60 28.08Q49.21 27.89 49.67 27.63L49.67 27.63L49.51 28.21L45.56 31.31Q45.13 31.65 44.91 32.08Q44.68 32.51 44.68 33.28L44.68 33.28L44.68 39.89Q44.68 41.55 44 42.67Q43.32 43.79 42.21 44.47Q41.11 45.15 39.88 45.47ZM51.32 36.40L54.87 33.76L51.32 29.57L51.32 36.40ZM47.21 43.65L47.21 43.65Q48.15 43.65 48.99 43.81Q49.83 43.97 50.55 44.29L50.55 44.29L50.55 29.73Q50.12 30.05 49.81 30.56Q49.51 31.07 49.51 31.68L49.51 31.68L49.51 38.64Q49.51 39.95 49.09 40.84Q48.68 41.73 48.03 42.40Q47.37 43.07 46.65 43.65L46.65 43.65Q46.92 43.65 47.21 43.65ZM51.32 36.59L51.32 36.59L51.32 40.16L54.81 38.40Q54.04 37.84 53.16 37.39Q52.28 36.93 51.32 36.59ZM55.21 39.07L51.32 41.01L51.32 42.96L55.21 41.01L55.21 39.07ZM53.03 45.81L55.21 44.80L55.21 41.87L51.32 43.81L51.32 44.64Q52.23 45.12 53.03 45.81L53.03 45.81Z"></path>
    <path d="M49.60 76.48L49.60 76.48Q47.68 76.48 46.03 75.69Q44.37 74.91 43.13 73.55Q41.89 72.19 41.20 70.44Q40.51 68.69 40.51 66.77L40.51 66.77Q40.51 64.29 41.52 62.27Q42.53 60.24 44.19 58.81Q45.84 57.39 47.79 56.72L47.79 56.72L48.03 57.12Q46.27 58.03 45.17 59.79L45.17 59.79L52.21 55.49L52.21 55.49L52.21 55.49Q53.20 56.24 54.32 56.80Q55.44 57.36 56.72 57.79L56.72 57.79L57.57 57.07L57.79 57.33L54.61 60.64Q52.93 59.97 51.36 59.07L51.36 59.07L51.36 73.41Q53.23 73.17 54.57 72.08Q55.92 70.99 56.61 69.60L56.61 69.60L57.12 69.60Q57.01 71.60 56 73.15Q54.99 74.69 53.32 75.59Q51.65 76.48 49.60 76.48ZM49.39 58.11L49.39 68.08L44.77 70Q45.57 71.57 46.99 72.52Q48.40 73.47 50.43 73.47L50.43 73.47Q50.51 73.47 50.59 73.47L50.59 73.47L50.59 58.61Q50.08 58.32 49.60 57.97L49.60 57.97L49.39 58.11ZM43.79 65.39L43.79 65.39Q43.79 67.60 44.48 69.36L44.48 69.36L45.95 68.75L45.95 60.21L44.53 61.07Q43.79 62.99 43.79 65.39Z"></path>
  </g>
  <path d="M73.68 67.28L72.72 67.28Q74.32 64.52 76.94 62.48Q79.56 60.44 82.96 59.76L82.96 59.76Q83.44 59.04 83.72 58.16Q84 57.28 84 56.08L84 56.08L84 43.56Q86.24 40.72 89.32 38.48Q92.40 36.24 96.16 35L96.16 35L102.60 42.56L97.64 46.08Q99.20 46.64 100.56 47.44Q101.92 48.24 103.12 49.20L103.12 49.20L103.12 59.24L89.72 66.16Q87.92 65.20 85.94 64.70Q83.96 64.20 81.92 64.20L81.92 64.20Q79.24 64.20 77.18 65.04Q75.12 65.88 73.68 67.28L73.68 67.28ZM74.88 62.20L74.88 62.20L74.48 61.24Q76.16 60.28 76.54 58.42Q76.92 56.56 76.92 54.04L76.92 54.04L76.92 51.32L75.72 51.32Q74.60 51.32 73.90 51.90Q73.20 52.48 73.40 53.64L73.40 53.64L72.64 53.64Q72.04 52.52 72.04 51.28L72.04 51.28Q72.04 49.84 72.72 48.88Q73.40 47.92 74.40 47.48L74.40 47.48Q75 47.20 75.64 47.06Q76.28 46.92 76.92 46.84L76.92 46.84L76.92 45.80L76.92 45.80Q76.92 44.12 77.62 43.34Q78.32 42.56 79.32 41.92L79.32 41.92Q81.04 40.88 82.72 39.80L82.72 39.80Q82.48 39.80 82.28 39.80L82.28 39.80Q80.88 39.80 79.80 39.34Q78.72 38.88 77.32 38.88L77.32 38.88Q76.28 38.88 75.56 39.36Q74.84 39.84 74.56 40.64L74.56 40.64L73.60 40.64Q74.12 39.40 75.08 38.26Q76.04 37.12 77.42 36.38Q78.80 35.64 80.56 35.64L80.56 35.64Q81.96 35.64 83.28 36.02Q84.60 36.40 86 36.40L86 36.40Q87.04 36.40 87.96 36.12Q88.88 35.84 89.56 35.44L89.56 35.44L89.32 36.32L83.40 40.96Q82.76 41.48 82.42 42.12Q82.08 42.76 82.08 43.92L82.08 43.92L82.08 53.84Q82.08 56.32 81.06 58Q80.04 59.68 78.38 60.70Q76.72 61.72 74.88 62.20ZM92.04 48.60L97.36 44.64L92.04 38.36L92.04 48.60ZM85.88 59.48L85.88 59.48Q87.28 59.48 88.54 59.72Q89.80 59.96 90.88 60.44L90.88 60.44L90.88 38.60Q90.24 39.08 89.78 39.84Q89.32 40.60 89.32 41.52L89.32 41.52L89.32 51.96Q89.32 53.92 88.70 55.26Q88.08 56.60 87.10 57.60Q86.12 58.60 85.04 59.48L85.04 59.48Q85.44 59.48 85.88 59.48ZM92.04 48.88L92.04 48.88L92.04 54.24L97.28 51.60Q96.12 50.76 94.80 50.08Q93.48 49.40 92.04 48.88ZM97.88 52.60L92.04 55.52L92.04 58.44L97.88 55.52L97.88 52.60ZM94.60 62.72L97.88 61.20L97.88 56.80L92.04 59.72L92.04 60.96Q93.40 61.68 94.60 62.72L94.60 62.72ZM117.68 61.88L111.72 66.20L107.32 62.76L105.96 63.72L105.40 62.96L107.88 61.20L107.88 50.68L106.56 48.96L105 49.92L104.44 49.12L109.80 45.48L112.76 48.64L115.52 45.48L115.96 45.48Q116.56 46.48 117.76 46.48L117.76 46.48Q118.36 46.48 118.82 46.18Q119.28 45.88 119.56 45.48L119.56 45.48L120.76 45.48Q120.52 47.96 119.78 49.16Q119.04 50.36 118.20 50.72Q117.36 51.08 116.76 51.08L116.76 51.08Q116.12 51.08 115.14 50.72Q114.16 50.36 113.20 49.40L113.20 49.40L113.20 61.20L114.76 62.44L116.92 61L117.68 61.88ZM133.20 62.20L128.12 66.16L122.68 61.60L123.96 60.56L123.96 51.16L123.96 51.16Q123.96 50.24 123.60 49.56Q123.24 48.88 122.36 48.88L122.36 48.88Q121.84 48.88 121.46 49.10Q121.08 49.32 120.80 49.56L120.80 49.56L120.40 49L125.56 45.64Q126.96 46.20 127.84 47.34Q128.72 48.48 128.72 50.44L128.72 50.44L128.72 60.08L131.24 62.44L133.12 61.04L133.12 59.12L133.12 50.88L131.04 49.04L134.80 45.60L137.44 47.88L138.76 46.84L139.44 47.68L137.72 49.08L137.72 58.60L137.76 60.24Q137.76 61.16 138 61.88Q138.24 62.60 138.84 63L138.84 63L140.32 61.76L141.04 62.76L136.24 66.08Q135.16 66.04 134.28 65.08Q133.40 64.12 133.20 62.20L133.20 62.20ZM151.88 63.12L148.04 66.60L143.44 62.96L144.96 61.60L144.96 50.96L143.44 49.24L141.88 50.20L141.32 49.44L146.88 45.60L149.96 49.04L154.36 45.60L158.88 49.48L160.56 48.12L161.28 49L159.36 50.56L159.36 61.04L161.08 62.56L162.60 61.40L163.36 62.56L157.44 66.60L153.40 62.96L154.76 61.60L154.76 51.72L151.88 49.24L150.16 50.60L150.16 61.60L151.88 63.12ZM166.16 62L164.36 63.40L163.68 62.56L165.56 61L165.56 50.48L175.16 45.48L179.16 51.64L179.16 51.80L170.56 57.20L170.56 58.92L175.36 62.16L179.76 58.72L180.32 59.68L172.08 66.40L166.16 62ZM171.32 48.56L170.56 49L170.56 55.80L174.56 53.28L171.32 48.56ZM193.08 63.20L187.60 66.04L183.36 62.40L181.84 63.36L181.28 62.60L183.96 60.88L183.96 51.24Q183.96 50.08 183.30 49.72Q182.64 49.36 182.04 49.36L182.04 49.36L182.04 48.76L188.56 42.24L189.32 42.24L189.32 46.84L194.08 46.84L192.20 49.04L189.32 49.04L189.32 61.24L191.20 63.16L192.52 62.44L193.08 63.20ZM206.80 63.20L201.32 66.04L197.08 62.40L195.56 63.36L195 62.60L197.68 60.88L197.68 51.24Q197.68 50.08 197.02 49.72Q196.36 49.36 195.76 49.36L195.76 49.36L195.76 48.76L202.28 42.24L203.04 42.24L203.04 46.84L207.80 46.84L205.92 49.04L203.04 49.04L203.04 61.24L204.92 63.16L206.24 62.44L206.80 63.20ZM217.76 40.64L213.92 43.96L210.52 40.08L214.36 36.76L217.76 40.64ZM220.84 62.16L215.08 66.20L211.24 62.76L209.88 63.72L209.32 62.96L211.80 61.20L211.80 50.68L210.48 48.96L208.92 49.92L208.36 49.12L213.72 45.48L216.80 49.12L216.80 61.20L218.12 62.56L219.88 61.40L220.84 62.16ZM247.64 66.72L247.64 66.72Q244.76 66.72 242.28 65.54Q239.80 64.36 237.94 62.32Q236.08 60.28 235.04 57.66Q234 55.04 234 52.16L234 52.16Q234 48.44 235.52 45.40Q237.04 42.36 239.52 40.22Q242 38.08 244.92 37.08L244.92 37.08L245.28 37.68Q242.64 39.04 241 41.68L241 41.68L251.56 35.24L251.56 35.24L251.56 35.24Q253.04 36.36 254.72 37.20Q256.40 38.04 258.32 38.68L258.32 38.68L259.60 37.60L259.92 38L255.16 42.96Q252.64 41.96 250.28 40.60L250.28 40.60L250.28 62.12Q253.08 61.76 255.10 60.12Q257.12 58.48 258.16 56.40L258.16 56.40L258.92 56.40Q258.76 59.40 257.24 61.72Q255.72 64.04 253.22 65.38Q250.72 66.72 247.64 66.72ZM247.32 39.16L247.32 54.12L240.40 57Q241.60 59.36 243.72 60.78Q245.84 62.20 248.88 62.20L248.88 62.20Q249 62.20 249.12 62.20L249.12 62.20L249.12 39.92Q248.36 39.48 247.64 38.96L247.64 38.96L247.32 39.16ZM238.92 50.08L238.92 50.08Q238.92 53.40 239.96 56.04L239.96 56.04L242.16 55.12L242.16 42.32L240.04 43.60Q238.92 46.48 238.92 50.08ZM273.12 62.20L268.04 66.16L262.60 61.60L263.88 60.56L263.88 51.16L263.88 51.16Q263.88 50.24 263.52 49.56Q263.16 48.88 262.28 48.88L262.28 48.88Q261.76 48.88 261.38 49.10Q261 49.32 260.72 49.56L260.72 49.56L260.32 49L265.48 45.64Q266.88 46.20 267.76 47.34Q268.64 48.48 268.64 50.44L268.64 50.44L268.64 60.08L271.16 62.44L273.04 61.04L273.04 59.12L273.04 50.88L270.96 49.04L274.72 45.60L277.36 47.88L278.68 46.84L279.36 47.68L277.64 49.08L277.64 58.60L277.68 60.24Q277.68 61.16 277.92 61.88Q278.16 62.60 278.76 63L278.76 63L280.24 61.76L280.96 62.76L276.16 66.08Q275.08 66.04 274.20 65.08Q273.32 64.12 273.12 62.20L273.12 62.20ZM293.68 63.20L288.20 66.04L283.96 62.40L282.44 63.36L281.88 62.60L284.56 60.88L284.56 51.24Q284.56 50.08 283.90 49.72Q283.24 49.36 282.64 49.36L282.64 49.36L282.64 48.76L289.16 42.24L289.92 42.24L289.92 46.84L294.68 46.84L292.80 49.04L289.92 49.04L289.92 61.24L291.80 63.16L293.12 62.44L293.68 63.20ZM295.72 66L295.72 66L295.32 65.64Q296 63.48 297.26 61.50Q298.52 59.52 300.08 57.64L300.08 57.64L300.32 57.36L297.64 57.36L296.68 58.32L296.08 57.76L299.36 53.92L303.36 53.92L306.08 50.88Q304.28 51.44 302.40 51.44L302.40 51.44Q300.88 51.44 299.66 51.14Q298.44 50.84 297.24 50.28L297.24 50.28L296.28 51.80L295.52 51.44L298.60 45.68Q300.04 46.24 301.56 46.64Q303.08 47.04 304.96 47.04L304.96 47.04Q306.52 47.04 307.94 46.74Q309.36 46.44 310.48 45.68L310.48 45.68L310.88 46.24Q309.64 48.40 308.16 50.28Q306.68 52.16 305.12 53.92L305.12 53.92L308 53.92L308.96 52.96L309.52 53.56L306.28 57.36L302.08 57.36Q301.68 57.80 301.32 58.24Q300.96 58.68 300.56 59.12L300.56 59.12L299.36 60.64Q301.36 60.04 303.44 60.04L303.44 60.04Q305.28 60.04 306.84 60.44Q308.40 60.84 309.92 61.60L309.92 61.60L311.04 60.24L311.64 60.64L307.40 65.80Q306.04 65.20 304.44 64.74Q302.84 64.28 300.96 64.28L300.96 64.28Q299.28 64.28 298.02 64.74Q296.76 65.20 295.72 66Z" fill="url(#lkGold)"></path>
  <path d="M116.97 88L112.67 88L112.67 87.28L113.92 87.28L113.92 79.97L112.67 79.97L112.67 79.25L117.01 79.25Q117.76 79.25 118.34 79.53Q118.93 79.80 119.26 80.29Q119.59 80.79 119.59 81.44L119.59 81.44L119.59 81.54Q119.59 82.15 119.36 82.55Q119.12 82.95 118.78 83.17Q118.44 83.40 118.12 83.50L118.12 83.50L118.12 83.65Q118.44 83.72 118.79 83.96Q119.13 84.19 119.36 84.59Q119.59 84.99 119.59 85.60L119.59 85.60L119.59 85.72Q119.59 86.44 119.25 86.95Q118.91 87.46 118.31 87.73Q117.72 88 116.97 88L116.97 88ZM114.72 83.95L114.72 87.28L116.89 87.28Q117.83 87.28 118.31 86.84Q118.79 86.40 118.79 85.66L118.79 85.66L118.79 85.56Q118.79 84.83 118.31 84.39Q117.83 83.95 116.89 83.95L116.89 83.95L114.72 83.95ZM114.72 79.97L114.72 83.22L116.94 83.22Q117.81 83.22 118.30 82.79Q118.79 82.36 118.79 81.66L118.79 81.66L118.79 81.54Q118.79 80.84 118.30 80.41Q117.81 79.97 116.94 79.97L116.94 79.97L114.72 79.97ZM126.46 88L125.62 88L128.48 79.25L129.91 79.25L132.77 88L131.93 88L131.18 85.67L127.21 85.67L126.46 88ZM129.12 79.72L127.43 84.95L130.96 84.95L129.27 79.72L129.12 79.72ZM139.99 88L139.19 88L139.19 79.25L142.62 79.25Q143.43 79.25 144.05 79.53Q144.67 79.80 145.03 80.32Q145.38 80.84 145.38 81.58L145.38 81.58L145.38 81.70Q145.38 82.59 144.96 83.09Q144.53 83.60 143.96 83.76L143.96 83.76L143.96 83.91Q144.39 83.92 144.69 84.19Q144.99 84.45 144.99 85.03L144.99 85.03L144.99 88L144.19 88L144.19 85.11Q144.19 84.71 143.97 84.50Q143.76 84.29 143.32 84.29L143.32 84.29L139.99 84.29L139.99 88ZM139.99 79.97L139.99 83.56L142.54 83.56Q143.52 83.56 144.05 83.11Q144.58 82.65 144.58 81.80L144.58 81.80L144.58 81.74Q144.58 80.89 144.06 80.43Q143.54 79.97 142.54 79.97L142.54 79.97L139.99 79.97ZM155.91 88L151.61 88L151.61 87.28L152.86 87.28L152.86 79.97L151.61 79.97L151.61 79.25L155.94 79.25Q156.69 79.25 157.28 79.53Q157.87 79.80 158.20 80.29Q158.53 80.79 158.53 81.44L158.53 81.44L158.53 81.54Q158.53 82.15 158.29 82.55Q158.06 82.95 157.72 83.17Q157.38 83.40 157.06 83.50L157.06 83.50L157.06 83.65Q157.38 83.72 157.72 83.96Q158.07 84.19 158.30 84.59Q158.53 84.99 158.53 85.60L158.53 85.60L158.53 85.72Q158.53 86.44 158.19 86.95Q157.84 87.46 157.25 87.73Q156.66 88 155.91 88L155.91 88ZM153.66 83.95L153.66 87.28L155.83 87.28Q156.77 87.28 157.25 86.84Q157.73 86.40 157.73 85.66L157.73 85.66L157.73 85.56Q157.73 84.83 157.25 84.39Q156.77 83.95 155.83 83.95L155.83 83.95L153.66 83.95ZM153.66 79.97L153.66 83.22L155.88 83.22Q156.74 83.22 157.24 82.79Q157.73 82.36 157.73 81.66L157.73 81.66L157.73 81.54Q157.73 80.84 157.24 80.41Q156.74 79.97 155.88 79.97L155.88 79.97L153.66 79.97ZM170.67 88L165.33 88L165.33 79.25L170.62 79.25L170.62 79.97L166.13 79.97L166.13 83.25L170.27 83.25L170.27 83.97L166.13 83.97L166.13 87.28L170.67 87.28L170.67 88ZM178.22 88L177.42 88L177.42 79.25L180.84 79.25Q181.66 79.25 182.28 79.53Q182.89 79.80 183.25 80.32Q183.61 80.84 183.61 81.58L183.61 81.58L183.61 81.70Q183.61 82.59 183.18 83.09Q182.76 83.60 182.18 83.76L182.18 83.76L182.18 83.91Q182.62 83.92 182.92 84.19Q183.22 84.45 183.22 85.03L183.22 85.03L183.22 88L182.42 88L182.42 85.11Q182.42 84.71 182.20 84.50Q181.98 84.29 181.54 84.29L181.54 84.29L178.22 84.29L178.22 88ZM178.22 79.97L178.22 83.56L180.77 83.56Q181.74 83.56 182.28 83.11Q182.81 82.65 182.81 81.80L182.81 81.80L182.81 81.74Q182.81 80.89 182.29 80.43Q181.77 79.97 180.77 79.97L180.77 79.97L178.22 79.97ZM201.38 88.17L201.38 88.17Q200.44 88.17 199.71 87.84Q198.97 87.51 198.54 86.83Q198.12 86.15 198.12 85.10L198.12 85.10L198.12 84.86L198.92 84.86L198.92 85.10Q198.92 86.31 199.61 86.89Q200.31 87.47 201.38 87.47L201.38 87.47Q202.47 87.47 203.06 86.97Q203.64 86.46 203.64 85.67L203.64 85.67Q203.64 85.15 203.39 84.83Q203.13 84.51 202.67 84.32Q202.22 84.13 201.62 83.97L201.62 83.97L200.82 83.78Q200.11 83.59 199.54 83.31Q198.98 83.03 198.66 82.57Q198.33 82.11 198.33 81.40L198.33 81.40Q198.33 80.69 198.70 80.16Q199.07 79.64 199.72 79.36Q200.37 79.08 201.23 79.08L201.23 79.08Q202.09 79.08 202.79 79.38Q203.48 79.67 203.89 80.26Q204.29 80.84 204.29 81.71L204.29 81.71L204.29 82.30L203.49 82.30L203.49 81.71Q203.49 81.03 203.19 80.60Q202.89 80.17 202.38 79.97Q201.87 79.78 201.23 79.78L201.23 79.78Q200.32 79.78 199.72 80.19Q199.13 80.61 199.13 81.40L199.13 81.40Q199.13 81.92 199.38 82.24Q199.62 82.55 200.06 82.74Q200.51 82.92 201.11 83.08L201.11 83.08L201.91 83.28Q202.59 83.44 203.17 83.71Q203.74 83.97 204.09 84.44Q204.44 84.91 204.44 85.67L204.44 85.67Q204.44 86.44 204.06 87Q203.68 87.56 202.99 87.87Q202.31 88.17 201.38 88.17ZM213.81 88L213.01 88L213.01 79.97L210.08 79.97L210.08 79.25L216.73 79.25L216.73 79.97L213.81 79.97L213.81 88ZM226.23 88.17L226.23 88.17Q225.29 88.17 224.59 87.84Q223.88 87.51 223.48 86.84Q223.08 86.16 223.08 85.14L223.08 85.14L223.08 79.25L223.88 79.25L223.88 85.14Q223.88 86.31 224.50 86.88Q225.12 87.45 226.23 87.45L226.23 87.45Q227.34 87.45 227.96 86.88Q228.58 86.31 228.58 85.14L228.58 85.14L228.58 79.25L229.38 79.25L229.38 85.14Q229.38 86.16 228.99 86.84Q228.59 87.51 227.88 87.84Q227.17 88.17 226.23 88.17ZM239.31 88L235.98 88L235.98 87.28L237.23 87.28L237.23 79.97L235.98 79.97L235.98 79.25L239.31 79.25Q241.02 79.25 241.97 80.12Q242.93 80.99 242.93 82.83L242.93 82.83L242.93 84.44Q242.93 86.28 241.97 87.14Q241.02 88 239.31 88L239.31 88ZM238.03 79.99L238.03 87.28L239.31 87.28Q240.68 87.28 241.41 86.61Q242.13 85.95 242.13 84.47L242.13 84.47L242.13 82.79Q242.13 81.30 241.41 80.64Q240.68 79.99 239.31 79.99L239.31 79.99L238.03 79.99ZM250.53 88L249.73 88L249.73 79.25L250.53 79.25L250.53 88ZM260.77 88.17L260.77 88.17Q259.23 88.17 258.32 87.27Q257.41 86.36 257.41 84.61L257.41 84.61L257.41 82.64Q257.41 80.89 258.32 79.98Q259.23 79.08 260.77 79.08L260.77 79.08Q262.31 79.08 263.22 79.98Q264.13 80.89 264.13 82.64L264.13 82.64L264.13 84.61Q264.13 86.36 263.22 87.27Q262.31 88.17 260.77 88.17ZM260.77 87.45L260.77 87.45Q261.99 87.45 262.66 86.71Q263.33 85.97 263.33 84.64L263.33 84.64L263.33 82.61Q263.33 81.28 262.66 80.54Q261.99 79.80 260.77 79.80L260.77 79.80Q259.56 79.80 258.88 80.54Q258.21 81.28 258.21 82.61L258.21 82.61L258.21 84.64Q258.21 85.97 258.88 86.71Q259.56 87.45 260.77 87.45Z" fill="#9a8d77" opacity="0.95"></path>
</svg>