<svg xmlns="http://www.w3.org/2000/svg" viewBox="0 0 254.1 62.4" width="254.1" height="62.4" role="img" aria-label="Brunetti Cutz">
  <defs>
    <linearGradient id="wmGold" gradientUnits="userSpaceOnUse" x1="0" y1="6.0" x2="0" y2="37.0">
      <stop offset="0%" stop-color="#f1e2b0"></stop>
      <stop offset="20%" stop-color="#e9d7a0"></stop>
      <stop offset="52%" stop-color="#c9a14e"></stop>
      <stop offset="80%" stop-color="#9c7a32"></stop>
      <stop offset="100%" stop-color="#7a5e26"></stop>
    </linearGradient>
    <filter id="wmGlow" x="-5%" y="-20%" width="110%" height="140%">
      <feDropShadow dx="0" dy="1" stdDeviation="3" flood-color="#000000" flood-opacity="0.35"></feDropShadow>
    </filter>
  </defs>
  <path d="M9.72 38.28L8.76 38.28Q10.36 35.52 12.98 33.48Q15.60 31.44 19 30.76L19 30.76Q19.48 30.04 19.76 29.16Q20.04 28.28 20.04 27.08L20.04 27.08L20.04 14.56Q22.28 11.72 25.36 9.48Q28.44 7.24 32.20 6L32.20 6L38.64 13.56L33.68 17.08Q35.24 17.64 36.60 18.44Q37.96 19.24 39.16 20.20L39.16 20.20L39.16 30.24L25.76 37.16Q23.96 36.20 21.98 35.70Q20 35.20 17.96 35.20L17.96 35.20Q15.28 35.20 13.22 36.04Q11.16 36.88 9.72 38.28L9.72 38.28ZM10.92 33.20L10.92 33.20L10.52 32.24Q12.20 31.28 12.58 29.42Q12.96 27.56 12.96 25.04L12.96 25.04L12.96 22.32L11.76 22.32Q10.64 22.32 9.94 22.90Q9.24 23.48 9.44 24.64L9.44 24.64L8.68 24.64Q8.08 23.52 8.08 22.28L8.08 22.28Q8.08 20.84 8.76 19.88Q9.44 18.92 10.44 18.48L10.44 18.48Q11.04 18.20 11.68 18.06Q12.32 17.92 12.96 17.84L12.96 17.84L12.96 16.80L12.96 16.80Q12.96 15.12 13.66 14.34Q14.36 13.56 15.36 12.92L15.36 12.92Q17.08 11.88 18.76 10.80L18.76 10.80Q18.52 10.80 18.32 10.80L18.32 10.80Q16.92 10.80 15.84 10.34Q14.76 9.88 13.36 9.88L13.36 9.88Q12.32 9.88 11.60 10.36Q10.88 10.84 10.60 11.64L10.60 11.64L9.64 11.64Q10.16 10.40 11.12 9.26Q12.08 8.12 13.46 7.38Q14.84 6.64 16.60 6.64L16.60 6.64Q18 6.64 19.32 7.02Q20.64 7.40 22.04 7.40L22.04 7.40Q23.08 7.40 24 7.12Q24.92 6.84 25.60 6.44L25.60 6.44L25.36 7.32L19.44 11.96Q18.80 12.48 18.46 13.12Q18.12 13.76 18.12 14.92L18.12 14.92L18.12 24.84Q18.12 27.32 17.10 29Q16.08 30.68 14.42 31.70Q12.76 32.72 10.92 33.20ZM28.08 19.60L33.40 15.64L28.08 9.36L28.08 19.60ZM21.92 30.48L21.92 30.48Q23.32 30.48 24.58 30.72Q25.84 30.96 26.92 31.44L26.92 31.44L26.92 9.60Q26.28 10.08 25.82 10.84Q25.36 11.60 25.36 12.52L25.36 12.52L25.36 22.96Q25.36 24.92 24.74 26.26Q24.12 27.60 23.14 28.60Q22.16 29.60 21.08 30.48L21.08 30.48Q21.48 30.48 21.92 30.48ZM28.08 19.88L28.08 19.88L28.08 25.24L33.32 22.60Q32.16 21.76 30.84 21.08Q29.52 20.40 28.08 19.88ZM33.92 23.60L28.08 26.52L28.08 29.44L33.92 26.52L33.92 23.60ZM30.64 33.72L33.92 32.20L33.92 27.80L28.08 30.72L28.08 31.96Q29.44 32.68 30.64 33.72L30.64 33.72ZM53.72 32.88L47.76 37.20L43.36 33.76L42 34.72L41.44 33.96L43.92 32.20L43.92 21.68L42.60 19.96L41.04 20.92L40.48 20.12L45.84 16.48L48.80 19.64L51.56 16.48L52 16.48Q52.60 17.48 53.80 17.48L53.80 17.48Q54.40 17.48 54.86 17.18Q55.32 16.88 55.60 16.48L55.60 16.48L56.80 16.48Q56.56 18.96 55.82 20.16Q55.08 21.36 54.24 21.72Q53.40 22.08 52.80 22.08L52.80 22.08Q52.16 22.08 51.18 21.72Q50.20 21.36 49.24 20.40L49.24 20.40L49.24 32.20L50.80 33.44L52.96 32L53.72 32.88ZM69.24 33.20L64.16 37.16L58.72 32.60L60.00 31.56L60.00 22.16L60.00 22.16Q60.00 21.24 59.64 20.56Q59.28 19.88 58.40 19.88L58.40 19.88Q57.88 19.88 57.50 20.10Q57.12 20.32 56.84 20.56L56.84 20.56L56.44 20L61.60 16.64Q63.00 17.20 63.88 18.34Q64.76 19.48 64.76 21.44L64.76 21.44L64.76 31.08L67.28 33.44L69.16 32.04L69.16 30.12L69.16 21.88L67.08 20.04L70.84 16.60L73.48 18.88L74.80 17.84L75.48 18.68L73.76 20.08L73.76 29.60L73.80 31.24Q73.80 32.16 74.04 32.88Q74.28 33.60 74.88 34L74.88 34L76.36 32.76L77.08 33.76L72.28 37.08Q71.20 37.04 70.32 36.08Q69.44 35.12 69.24 33.20L69.24 33.20ZM87.92 34.12L84.08 37.60L79.48 33.96L81.00 32.60L81.00 21.96L79.48 20.24L77.92 21.20L77.36 20.44L82.92 16.60L86.00 20.04L90.40 16.60L94.92 20.48L96.60 19.12L97.32 20L95.40 21.56L95.40 32.04L97.12 33.56L98.64 32.40L99.40 33.56L93.48 37.60L89.44 33.96L90.80 32.60L90.80 22.72L87.92 20.24L86.20 21.60L86.20 32.60L87.92 34.12ZM102.20 33L100.40 34.40L99.72 33.56L101.60 32L101.60 21.48L111.20 16.48L115.20 22.64L115.20 22.80L106.60 28.20L106.60 29.92L111.40 33.16L115.80 29.72L116.36 30.68L108.12 37.40L102.20 33ZM107.36 19.56L106.60 20L106.60 26.80L110.60 24.28L107.36 19.56ZM129.12 34.20L123.64 37.04L119.40 33.40L117.88 34.36L117.32 33.60L120.00 31.88L120.00 22.24Q120.00 21.08 119.34 20.72Q118.68 20.36 118.08 20.36L118.08 20.36L118.08 19.76L124.60 13.24L125.36 13.24L125.36 17.84L130.12 17.84L128.24 20.04L125.36 20.04L125.36 32.24L127.24 34.16L128.56 33.44L129.12 34.20ZM142.84 34.20L137.36 37.04L133.12 33.40L131.60 34.36L131.04 33.60L133.72 31.88L133.72 22.24Q133.72 21.08 133.06 20.72Q132.40 20.36 131.80 20.36L131.80 20.36L131.80 19.76L138.32 13.24L139.08 13.24L139.08 17.84L143.84 17.84L141.96 20.04L139.08 20.04L139.08 32.24L140.96 34.16L142.28 33.44L142.84 34.20ZM153.80 11.64L149.96 14.96L146.56 11.08L150.40 7.76L153.80 11.64ZM156.88 33.16L151.12 37.20L147.28 33.76L145.92 34.72L145.36 33.96L147.84 32.20L147.84 21.68L146.52 19.96L144.96 20.92L144.40 20.12L149.76 16.48L152.84 20.12L152.84 32.20L154.16 33.56L155.92 32.40L156.88 33.16ZM183.68 37.72L183.68 37.72Q180.80 37.72 178.32 36.54Q175.84 35.36 173.98 33.32Q172.12 31.28 171.08 28.66Q170.04 26.04 170.04 23.16L170.04 23.16Q170.04 19.44 171.56 16.40Q173.08 13.36 175.56 11.22Q178.04 9.08 180.96 8.08L180.96 8.08L181.32 8.68Q178.68 10.04 177.04 12.68L177.04 12.68L187.60 6.24L187.60 6.24L187.60 6.24Q189.08 7.36 190.76 8.20Q192.44 9.04 194.36 9.68L194.36 9.68L195.64 8.60L195.96 9L191.20 13.96Q188.68 12.96 186.32 11.60L186.32 11.60L186.32 33.12Q189.12 32.76 191.14 31.12Q193.16 29.48 194.20 27.40L194.20 27.40L194.96 27.40Q194.80 30.40 193.28 32.72Q191.76 35.04 189.26 36.38Q186.76 37.72 183.68 37.72ZM183.36 10.16L183.36 25.12L176.44 28Q177.64 30.36 179.76 31.78Q181.88 33.20 184.92 33.20L184.92 33.20Q185.04 33.20 185.16 33.20L185.16 33.20L185.16 10.92Q184.40 10.48 183.68 9.96L183.68 9.96L183.36 10.16ZM174.96 21.08L174.96 21.08Q174.96 24.40 176.00 27.04L176.00 27.04L178.20 26.12L178.20 13.32L176.08 14.60Q174.96 17.48 174.96 21.08ZM209.16 33.20L204.08 37.16L198.64 32.60L199.92 31.56L199.92 22.16L199.92 22.16Q199.92 21.24 199.56 20.56Q199.20 19.88 198.32 19.88L198.32 19.88Q197.80 19.88 197.42 20.10Q197.04 20.32 196.76 20.56L196.76 20.56L196.36 20L201.52 16.64Q202.92 17.20 203.80 18.34Q204.68 19.48 204.68 21.44L204.68 21.44L204.68 31.08L207.20 33.44L209.08 32.04L209.08 30.12L209.08 21.88L207 20.04L210.76 16.60L213.40 18.88L214.72 17.84L215.40 18.68L213.68 20.08L213.68 29.60L213.72 31.24Q213.72 32.16 213.96 32.88Q214.20 33.60 214.80 34L214.80 34L216.28 32.76L217 33.76L212.20 37.08Q211.12 37.04 210.24 36.08Q209.36 35.12 209.16 33.20L209.16 33.20ZM229.72 34.20L224.24 37.04L220 33.40L218.48 34.36L217.92 33.60L220.60 31.88L220.60 22.24Q220.60 21.08 219.94 20.72Q219.28 20.36 218.68 20.36L218.68 20.36L218.68 19.76L225.20 13.24L225.96 13.24L225.96 17.84L230.72 17.84L228.84 20.04L225.96 20.04L225.96 32.24L227.84 34.16L229.16 33.44L229.72 34.20ZM231.76 37L231.76 37L231.36 36.64Q232.04 34.48 233.30 32.50Q234.56 30.52 236.12 28.64L236.12 28.64L236.36 28.36L233.68 28.36L232.72 29.32L232.12 28.76L235.40 24.92L239.40 24.92L242.12 21.88Q240.32 22.44 238.44 22.44L238.44 22.44Q236.92 22.44 235.70 22.14Q234.48 21.84 233.28 21.28L233.28 21.28L232.32 22.80L231.56 22.44L234.64 16.68Q236.08 17.24 237.60 17.64Q239.12 18.04 241 18.04L241 18.04Q242.56 18.04 243.98 17.74Q245.40 17.44 246.52 16.68L246.52 16.68L246.92 17.24Q245.68 19.40 244.20 21.28Q242.72 23.16 241.16 24.92L241.16 24.92L244.04 24.92L245 23.96L245.56 24.56L242.32 28.36L238.12 28.36Q237.72 28.80 237.36 29.24Q237 29.68 236.60 30.12L236.60 30.12L235.40 31.64Q237.40 31.04 239.48 31.04L239.48 31.04Q241.32 31.04 242.88 31.44Q244.44 31.84 245.96 32.60L245.96 32.60L247.08 31.24L247.68 31.64L243.44 36.80Q242.08 36.20 240.48 35.74Q238.88 35.28 237 35.28L237 35.28Q235.32 35.28 234.06 35.74Q232.80 36.20 231.76 37Z" fill="url(#wmGold)" filter="url(#wmGlow)"></path>
  <path d="M53.01 56.20L48.71 56.20L48.71 55.48L49.96 55.48L49.96 48.18L48.71 48.18L48.71 47.45L53.05 47.45Q53.80 47.45 54.38 47.73Q54.97 48.00 55.30 48.50Q55.63 48.99 55.63 49.64L55.63 49.64L55.63 49.74Q55.63 50.35 55.40 50.75Q55.16 51.16 54.82 51.38Q54.48 51.60 54.16 51.70L54.16 51.70L54.16 51.85Q54.48 51.93 54.83 52.16Q55.17 52.39 55.40 52.79Q55.63 53.19 55.63 53.80L55.63 53.80L55.63 53.93Q55.63 54.64 55.29 55.16Q54.95 55.67 54.35 55.94Q53.76 56.20 53.01 56.20L53.01 56.20ZM50.76 52.16L50.76 55.48L52.93 55.48Q53.87 55.48 54.35 55.04Q54.83 54.60 54.83 53.87L54.83 53.87L54.83 53.77Q54.83 53.03 54.35 52.59Q53.87 52.16 52.93 52.16L52.93 52.16L50.76 52.16ZM50.76 48.18L50.76 51.43L52.98 51.43Q53.85 51.43 54.34 51.00Q54.83 50.57 54.83 49.87L54.83 49.87L54.83 49.74Q54.83 49.04 54.34 48.61Q53.85 48.18 52.98 48.18L52.98 48.18L50.76 48.18ZM62.50 56.20L61.66 56.20L64.52 47.45L65.95 47.45L68.81 56.20L67.97 56.20L67.22 53.88L63.25 53.88L62.50 56.20ZM65.16 47.93L63.47 53.16L67.00 53.16L65.31 47.93L65.16 47.93ZM76.03 56.20L75.23 56.20L75.23 47.45L78.66 47.45Q79.47 47.45 80.09 47.73Q80.71 48.00 81.07 48.52Q81.42 49.04 81.42 49.78L81.42 49.78L81.42 49.91Q81.42 50.79 81.00 51.30Q80.57 51.80 80.00 51.97L80.00 51.97L80.00 52.12Q80.43 52.13 80.73 52.39Q81.03 52.66 81.03 53.23L81.03 53.23L81.03 56.20L80.23 56.20L80.23 53.32Q80.23 52.92 80.02 52.70Q79.80 52.49 79.36 52.49L79.36 52.49L76.03 52.49L76.03 56.20ZM76.03 48.18L76.03 51.77L78.58 51.77Q79.56 51.77 80.09 51.31Q80.62 50.85 80.62 50.00L80.62 50.00L80.62 49.94Q80.62 49.09 80.10 48.64Q79.58 48.18 78.58 48.18L78.58 48.18L76.03 48.18ZM91.95 56.20L87.65 56.20L87.65 55.48L88.90 55.48L88.90 48.18L87.65 48.18L87.65 47.45L91.98 47.45Q92.73 47.45 93.32 47.73Q93.91 48.00 94.24 48.50Q94.57 48.99 94.57 49.64L94.57 49.64L94.57 49.74Q94.57 50.35 94.33 50.75Q94.10 51.16 93.76 51.38Q93.42 51.60 93.10 51.70L93.10 51.70L93.10 51.85Q93.42 51.93 93.77 52.16Q94.11 52.39 94.34 52.79Q94.57 53.19 94.57 53.80L94.57 53.80L94.57 53.93Q94.57 54.64 94.23 55.16Q93.88 55.67 93.29 55.94Q92.70 56.20 91.95 56.20L91.95 56.20ZM89.70 52.16L89.70 55.48L91.87 55.48Q92.81 55.48 93.29 55.04Q93.77 54.60 93.77 53.87L93.77 53.87L93.77 53.77Q93.77 53.03 93.29 52.59Q92.81 52.16 91.87 52.16L91.87 52.16L89.70 52.16ZM89.70 48.18L89.70 51.43L91.92 51.43Q92.78 51.43 93.28 51.00Q93.77 50.57 93.77 49.87L93.77 49.87L93.77 49.74Q93.77 49.04 93.28 48.61Q92.78 48.18 91.92 48.18L91.92 48.18L89.70 48.18ZM106.71 56.20L101.37 56.20L101.37 47.45L106.66 47.45L106.66 48.18L102.17 48.18L102.17 51.45L106.31 51.45L106.31 52.18L102.17 52.18L102.17 55.48L106.71 55.48L106.71 56.20ZM114.26 56.20L113.46 56.20L113.46 47.45L116.88 47.45Q117.70 47.45 118.32 47.73Q118.93 48.00 119.29 48.52Q119.65 49.04 119.65 49.78L119.65 49.78L119.65 49.91Q119.65 50.79 119.22 51.30Q118.80 51.80 118.22 51.97L118.22 51.97L118.22 52.12Q118.66 52.13 118.96 52.39Q119.26 52.66 119.26 53.23L119.26 53.23L119.26 56.20L118.46 56.20L118.46 53.32Q118.46 52.92 118.24 52.70Q118.02 52.49 117.58 52.49L117.58 52.49L114.26 52.49L114.26 56.20ZM114.26 48.18L114.26 51.77L116.81 51.77Q117.78 51.77 118.32 51.31Q118.85 50.85 118.85 50.00L118.85 50.00L118.85 49.94Q118.85 49.09 118.33 48.64Q117.81 48.18 116.81 48.18L116.81 48.18L114.26 48.18ZM137.42 56.38L137.42 56.38Q136.48 56.38 135.75 56.05Q135.01 55.72 134.58 55.04Q134.16 54.35 134.16 53.30L134.16 53.30L134.16 53.07L134.96 53.07L134.96 53.30Q134.96 54.52 135.65 55.10Q136.35 55.68 137.42 55.68L137.42 55.68Q138.51 55.68 139.10 55.17Q139.68 54.67 139.68 53.88L139.68 53.88Q139.68 53.35 139.43 53.04Q139.17 52.72 138.72 52.52Q138.26 52.33 137.66 52.18L137.66 52.18L136.86 51.98Q136.15 51.79 135.58 51.51Q135.02 51.23 134.70 50.77Q134.37 50.32 134.37 49.60L134.37 49.60Q134.37 48.89 134.74 48.37Q135.11 47.84 135.76 47.56Q136.41 47.28 137.27 47.28L137.27 47.28Q138.13 47.28 138.83 47.58Q139.52 47.88 139.93 48.46Q140.33 49.04 140.33 49.92L140.33 49.92L140.33 50.50L139.53 50.50L139.53 49.92Q139.53 49.23 139.23 48.80Q138.93 48.38 138.42 48.18Q137.91 47.98 137.27 47.98L137.27 47.98Q136.36 47.98 135.77 48.40Q135.17 48.82 135.17 49.60L135.17 49.60Q135.17 50.13 135.42 50.44Q135.66 50.75 136.10 50.94Q136.55 51.13 137.15 51.28L137.15 51.28L137.95 51.48Q138.63 51.64 139.21 51.91Q139.78 52.18 140.13 52.65Q140.48 53.12 140.48 53.88L140.48 53.88Q140.48 54.64 140.10 55.20Q139.72 55.77 139.03 56.07Q138.35 56.38 137.42 56.38ZM149.85 56.20L149.05 56.20L149.05 48.18L146.12 48.18L146.12 47.45L152.77 47.45L152.77 48.18L149.85 48.18L149.85 56.20ZM162.27 56.38L162.27 56.38Q161.33 56.38 160.63 56.05Q159.92 55.72 159.52 55.04Q159.12 54.37 159.12 53.34L159.12 53.34L159.12 47.45L159.92 47.45L159.92 53.34Q159.92 54.52 160.54 55.09Q161.16 55.66 162.27 55.66L162.27 55.66Q163.38 55.66 164.00 55.09Q164.62 54.52 164.62 53.34L164.62 53.34L164.62 47.45L165.42 47.45L165.42 53.34Q165.42 54.37 165.03 55.04Q164.63 55.72 163.92 56.05Q163.21 56.38 162.27 56.38ZM175.35 56.20L172.02 56.20L172.02 55.48L173.27 55.48L173.27 48.18L172.02 48.18L172.02 47.45L175.35 47.45Q177.06 47.45 178.02 48.32Q178.97 49.19 178.97 51.03L178.97 51.03L178.97 52.64Q178.97 54.48 178.02 55.34Q177.06 56.20 175.35 56.20L175.35 56.20ZM174.07 48.19L174.07 55.48L175.35 55.48Q176.72 55.48 177.45 54.82Q178.17 54.16 178.17 52.68L178.17 52.68L178.17 50.99Q178.17 49.50 177.45 48.85Q176.72 48.19 175.35 48.19L175.35 48.19L174.07 48.19ZM186.57 56.20L185.77 56.20L185.77 47.45L186.57 47.45L186.57 56.20ZM196.81 56.38L196.81 56.38Q195.27 56.38 194.36 55.47Q193.45 54.57 193.45 52.82L193.45 52.82L193.45 50.84Q193.45 49.09 194.36 48.19Q195.27 47.28 196.81 47.28L196.81 47.28Q198.35 47.28 199.26 48.19Q200.17 49.09 200.17 50.84L200.17 50.84L200.17 52.82Q200.17 54.57 199.26 55.47Q198.35 56.38 196.81 56.38ZM196.81 55.66L196.81 55.66Q198.03 55.66 198.70 54.92Q199.37 54.18 199.37 52.84L199.37 52.84L199.37 50.82Q199.37 49.48 198.70 48.74Q198.03 48.00 196.81 48.00L196.81 48.00Q195.60 48.00 194.92 48.74Q194.25 49.48 194.25 50.82L194.25 50.82L194.25 52.84Q194.25 54.18 194.92 54.92Q195.60 55.66 196.81 55.66Z" fill="#9a8d77" opacity="0.95"></path>
</svg>