<svg xmlns="http://www.w3.org/2000/svg" viewBox="0 0 443 112" width="443" height="112" role="img" aria-label="Brunetti Cutz">
  <defs>
    <linearGradient id="lkGold" gradientUnits="userSpaceOnUse" x1="0" y1="10" x2="0" y2="102">
      <stop offset="0%" stop-color="#f1e2b0"></stop>
      <stop offset="20%" stop-color="#e9d7a0"></stop>
      <stop offset="52%" stop-color="#c9a14e"></stop>
      <stop offset="80%" stop-color="#9c7a32"></stop>
      <stop offset="100%" stop-color="#7a5e26"></stop>
    </linearGradient>
    <radialGradient id="lkBadge" cx="35%" cy="28%" r="75%">
      <stop offset="0%" stop-color="#1e1e22"></stop>
      <stop offset="100%" stop-color="#0a0a0d"></stop>
    </radialGradient>
  </defs>
  <circle cx="56" cy="56" r="54" fill="none" stroke="#000000" stroke-width="6" opacity="0.35"></circle>
  <circle cx="56" cy="56" r="52" fill="url(#lkBadge)"></circle>
  <circle cx="56" cy="56" r="51.5" fill="none" stroke="url(#lkGold)" stroke-width="1.4" opacity="0.85"></circle>
  <circle cx="56" cy="56" r="44.5" fill="none" stroke="#c9a14e" stroke-width="0.7" opacity="0.4"></circle>
  <g fill="url(#lkGold)">
    <path d="M21.41 47.01L20.65 47.01Q21.91 44.83 23.99 43.21Q26.06 41.60 28.75 41.06L28.75 41.06Q29.13 40.49 29.36 39.79Q29.58 39.10 29.58 38.15L29.58 38.15L29.58 28.23Q31.35 25.99 33.79 24.21Q36.23 22.44 39.20 21.46L39.20 21.46L44.30 27.44L40.38 30.23Q41.61 30.67 42.69 31.31Q43.76 31.94 44.71 32.70L44.71 32.70L44.71 40.65L34.11 46.13Q32.68 45.37 31.11 44.97Q29.55 44.58 27.93 44.58L27.93 44.58Q25.81 44.58 24.18 45.24Q22.55 45.91 21.41 47.01L21.41 47.01ZM22.36 42.99L22.36 42.99L22.04 42.23Q23.37 41.47 23.67 40.00Q23.97 38.53 23.97 36.53L23.97 36.53L23.97 34.38L23.02 34.38Q22.14 34.38 21.58 34.84Q21.03 35.30 21.19 36.22L21.19 36.22L20.58 36.22Q20.11 35.33 20.11 34.35L20.11 34.35Q20.11 33.21 20.65 32.45Q21.19 31.69 21.98 31.34L21.98 31.34Q22.45 31.12 22.96 31.01Q23.47 30.89 23.97 30.83L23.97 30.83L23.97 30.01L23.97 30.01Q23.97 28.68 24.53 28.06Q25.08 27.44 25.87 26.94L25.87 26.94Q27.23 26.11 28.56 25.26L28.56 25.26Q28.37 25.26 28.22 25.26L28.22 25.26Q27.11 25.26 26.25 24.89Q25.40 24.53 24.29 24.53L24.29 24.53Q23.47 24.53 22.90 24.91Q22.33 25.29 22.10 25.92L22.10 25.92L21.34 25.92Q21.76 24.94 22.52 24.04Q23.28 23.14 24.37 22.55Q25.46 21.96 26.85 21.96L26.85 21.96Q27.96 21.96 29.01 22.27Q30.05 22.57 31.16 22.57L31.16 22.57Q31.98 22.57 32.71 22.34Q33.44 22.12 33.98 21.81L33.98 21.81L33.79 22.50L29.10 26.18Q28.60 26.59 28.33 27.09Q28.06 27.60 28.06 28.52L28.06 28.52L28.06 36.37Q28.06 38.34 27.25 39.67Q26.44 41.00 25.13 41.80Q23.81 42.61 22.36 42.99ZM35.94 32.23L40.15 29.09L35.94 24.12L35.94 32.23ZM31.07 40.84L31.07 40.84Q32.17 40.84 33.17 41.03Q34.17 41.22 35.02 41.60L35.02 41.60L35.02 24.31Q34.52 24.69 34.15 25.29Q33.79 25.89 33.79 26.62L33.79 26.62L33.79 34.88Q33.79 36.44 33.30 37.50Q32.81 38.56 32.03 39.35Q31.26 40.14 30.40 40.84L30.40 40.84Q30.72 40.84 31.07 40.84ZM35.94 32.45L35.94 32.45L35.94 36.69L40.09 34.60Q39.17 33.94 38.13 33.40Q37.08 32.86 35.94 32.45ZM40.57 35.39L35.94 37.70L35.94 40.02L40.57 37.70L40.57 35.39ZM37.97 43.40L40.57 42.20L40.57 38.72L35.94 41.03L35.94 42.01Q37.02 42.58 37.97 43.40L37.97 43.40Z"></path>
    <path d="M33.90 78.57L33.90 78.57Q31.62 78.57 29.66 77.64Q27.69 76.70 26.22 75.09Q24.75 73.47 23.93 71.40Q23.10 69.32 23.10 67.04L23.10 67.04Q23.10 64.10 24.30 61.69Q25.51 59.28 27.47 57.59Q29.44 55.90 31.75 55.10L31.75 55.10L32.03 55.58Q29.94 56.66 28.64 58.75L28.64 58.75L37.00 53.65L37.00 53.65L37.00 53.65Q38.17 54.53 39.51 55.20Q40.84 55.86 42.36 56.37L42.36 56.37L43.37 55.52L43.62 55.83L39.85 59.76Q37.86 58.97 35.99 57.89L35.99 57.89L35.99 74.93Q38.21 74.64 39.81 73.34Q41.41 72.05 42.23 70.40L42.23 70.40L42.83 70.40Q42.70 72.78 41.50 74.61Q40.30 76.45 38.32 77.51Q36.34 78.57 33.90 78.57ZM33.65 56.75L33.65 68.59L28.17 70.88Q29.12 72.74 30.80 73.87Q32.48 74.99 34.88 74.99L34.88 74.99Q34.98 74.99 35.07 74.99L35.07 74.99L35.07 57.35Q34.47 57.00 33.90 56.59L33.90 56.59L33.65 56.75ZM27.00 65.40L27.00 65.40Q27.00 68.03 27.82 70.11L27.82 70.11L29.56 69.39L29.56 59.25L27.88 60.27Q27.00 62.55 27.00 65.40Z"></path>
  </g>
  <path d="M104.68 67.28L103.72 67.28Q105.32 64.52 107.94 62.48Q110.56 60.44 113.96 59.76L113.96 59.76Q114.44 59.04 114.72 58.16Q115 57.28 115 56.08L115 56.08L115 43.56Q117.24 40.72 120.32 38.48Q123.40 36.24 127.16 35L127.16 35L133.60 42.56L128.64 46.08Q130.20 46.64 131.56 47.44Q132.92 48.24 134.12 49.20L134.12 49.20L134.12 59.24L120.72 66.16Q118.92 65.20 116.94 64.70Q114.96 64.20 112.92 64.20L112.92 64.20Q110.24 64.20 108.18 65.04Q106.12 65.88 104.68 67.28L104.68 67.28ZM105.88 62.20L105.88 62.20L105.48 61.24Q107.16 60.28 107.54 58.42Q107.92 56.56 107.92 54.04L107.92 54.04L107.92 51.32L106.72 51.32Q105.60 51.32 104.90 51.90Q104.20 52.48 104.40 53.64L104.40 53.64L103.64 53.64Q103.04 52.52 103.04 51.28L103.04 51.28Q103.04 49.84 103.72 48.88Q104.40 47.92 105.40 47.48L105.40 47.48Q106 47.20 106.64 47.06Q107.28 46.92 107.92 46.84L107.92 46.84L107.92 45.80L107.92 45.80Q107.92 44.12 108.62 43.34Q109.32 42.56 110.32 41.92L110.32 41.92Q112.04 40.88 113.72 39.80L113.72 39.80Q113.48 39.80 113.28 39.80L113.28 39.80Q111.88 39.80 110.80 39.34Q109.72 38.88 108.32 38.88L108.32 38.88Q107.28 38.88 106.56 39.36Q105.84 39.84 105.56 40.64L105.56 40.64L104.60 40.64Q105.12 39.40 106.08 38.26Q107.04 37.12 108.42 36.38Q109.80 35.64 111.56 35.64L111.56 35.64Q112.96 35.64 114.28 36.02Q115.60 36.40 117 36.40L117 36.40Q118.04 36.40 118.96 36.12Q119.88 35.84 120.56 35.44L120.56 35.44L120.32 36.32L114.40 40.96Q113.76 41.48 113.42 42.12Q113.08 42.76 113.08 43.92L113.08 43.92L113.08 53.84Q113.08 56.32 112.06 58Q111.04 59.68 109.38 60.70Q107.72 61.72 105.88 62.20ZM123.04 48.60L128.36 44.64L123.04 38.36L123.04 48.60ZM116.88 59.48L116.88 59.48Q118.28 59.48 119.54 59.72Q120.80 59.96 121.88 60.44L121.88 60.44L121.88 38.60Q121.24 39.08 120.78 39.84Q120.32 40.60 120.32 41.52L120.32 41.52L120.32 51.96Q120.32 53.92 119.70 55.26Q119.08 56.60 118.10 57.60Q117.12 58.60 116.04 59.48L116.04 59.48Q116.44 59.48 116.88 59.48ZM123.04 48.88L123.04 48.88L123.04 54.24L128.28 51.60Q127.12 50.76 125.80 50.08Q124.48 49.40 123.04 48.88ZM128.88 52.60L123.04 55.52L123.04 58.44L128.88 55.52L128.88 52.60ZM125.60 62.72L128.88 61.20L128.88 56.80L123.04 59.72L123.04 60.96Q124.40 61.68 125.60 62.72L125.60 62.72ZM148.68 61.88L142.72 66.20L138.32 62.76L136.96 63.72L136.40 62.96L138.88 61.20L138.88 50.68L137.56 48.96L136 49.92L135.44 49.12L140.80 45.48L143.76 48.64L146.52 45.48L146.96 45.48Q147.56 46.48 148.76 46.48L148.76 46.48Q149.36 46.48 149.82 46.18Q150.28 45.88 150.56 45.48L150.56 45.48L151.76 45.48Q151.52 47.96 150.78 49.16Q150.04 50.36 149.20 50.72Q148.36 51.08 147.76 51.08L147.76 51.08Q147.12 51.08 146.14 50.72Q145.16 50.36 144.20 49.40L144.20 49.40L144.20 61.20L145.76 62.44L147.92 61L148.68 61.88ZM164.20 62.20L159.12 66.16L153.68 61.60L154.96 60.56L154.96 51.16L154.96 51.16Q154.96 50.24 154.60 49.56Q154.24 48.88 153.36 48.88L153.36 48.88Q152.84 48.88 152.46 49.10Q152.08 49.32 151.80 49.56L151.80 49.56L151.40 49L156.56 45.64Q157.96 46.20 158.84 47.34Q159.72 48.48 159.72 50.44L159.72 50.44L159.72 60.08L162.24 62.44L164.12 61.04L164.12 59.12L164.12 50.88L162.04 49.04L165.80 45.60L168.44 47.88L169.76 46.84L170.44 47.68L168.72 49.08L168.72 58.60L168.76 60.24Q168.76 61.16 169 61.88Q169.24 62.60 169.84 63L169.84 63L171.32 61.76L172.04 62.76L167.24 66.08Q166.16 66.04 165.28 65.08Q164.40 64.12 164.20 62.20L164.20 62.20ZM182.88 63.12L179.04 66.60L174.44 62.96L175.96 61.60L175.96 50.96L174.44 49.24L172.88 50.20L172.32 49.44L177.88 45.60L180.96 49.04L185.36 45.60L189.88 49.48L191.56 48.12L192.28 49L190.36 50.56L190.36 61.04L192.08 62.56L193.60 61.40L194.36 62.56L188.44 66.60L184.40 62.96L185.76 61.60L185.76 51.72L182.88 49.24L181.16 50.60L181.16 61.60L182.88 63.12ZM197.16 62L195.36 63.40L194.68 62.56L196.56 61L196.56 50.48L206.16 45.48L210.16 51.64L210.16 51.80L201.56 57.20L201.56 58.92L206.36 62.16L210.76 58.72L211.32 59.68L203.08 66.40L197.16 62ZM202.32 48.56L201.56 49L201.56 55.80L205.56 53.28L202.32 48.56ZM224.08 63.20L218.60 66.04L214.36 62.40L212.84 63.36L212.28 62.60L214.96 60.88L214.96 51.24Q214.96 50.08 214.30 49.72Q213.64 49.36 213.04 49.36L213.04 49.36L213.04 48.76L219.56 42.24L220.32 42.24L220.32 46.84L225.08 46.84L223.20 49.04L220.32 49.04L220.32 61.24L222.20 63.16L223.52 62.44L224.08 63.20ZM237.80 63.20L232.32 66.04L228.08 62.40L226.56 63.36L226 62.60L228.68 60.88L228.68 51.24Q228.68 50.08 228.02 49.72Q227.36 49.36 226.76 49.36L226.76 49.36L226.76 48.76L233.28 42.24L234.04 42.24L234.04 46.84L238.80 46.84L236.92 49.04L234.04 49.04L234.04 61.24L235.92 63.16L237.24 62.44L237.80 63.20ZM248.76 40.64L244.92 43.96L241.52 40.08L245.36 36.76L248.76 40.64ZM251.84 62.16L246.08 66.20L242.24 62.76L240.88 63.72L240.32 62.96L242.80 61.20L242.80 50.68L241.48 48.96L239.92 49.92L239.36 49.12L244.72 45.48L247.80 49.12L247.80 61.20L249.12 62.56L250.88 61.40L251.84 62.16ZM278.64 66.72L278.64 66.72Q275.76 66.72 273.28 65.54Q270.80 64.36 268.94 62.32Q267.08 60.28 266.04 57.66Q265.00 55.04 265.00 52.16L265.00 52.16Q265.00 48.44 266.52 45.40Q268.04 42.36 270.52 40.22Q273.00 38.08 275.92 37.08L275.92 37.08L276.28 37.68Q273.64 39.04 272.00 41.68L272.00 41.68L282.56 35.24L282.56 35.24L282.56 35.24Q284.04 36.36 285.72 37.20Q287.40 38.04 289.32 38.68L289.32 38.68L290.60 37.60L290.92 38L286.16 42.96Q283.64 41.96 281.28 40.60L281.28 40.60L281.28 62.12Q284.08 61.76 286.10 60.12Q288.12 58.48 289.16 56.40L289.16 56.40L289.92 56.40Q289.76 59.40 288.24 61.72Q286.72 64.04 284.22 65.38Q281.72 66.72 278.64 66.72ZM278.32 39.16L278.32 54.12L271.40 57Q272.60 59.36 274.72 60.78Q276.84 62.20 279.88 62.20L279.88 62.20Q280 62.20 280.12 62.20L280.12 62.20L280.12 39.92Q279.36 39.48 278.64 38.96L278.64 38.96L278.32 39.16ZM269.92 50.08L269.92 50.08Q269.92 53.40 270.96 56.04L270.96 56.04L273.16 55.12L273.16 42.32L271.04 43.60Q269.92 46.48 269.92 50.08ZM304.12 62.20L299.04 66.16L293.60 61.60L294.88 60.56L294.88 51.16L294.88 51.16Q294.88 50.24 294.52 49.56Q294.16 48.88 293.28 48.88L293.28 48.88Q292.76 48.88 292.38 49.10Q292.00 49.32 291.72 49.56L291.72 49.56L291.32 49L296.48 45.64Q297.88 46.20 298.76 47.34Q299.64 48.48 299.64 50.44L299.64 50.44L299.64 60.08L302.16 62.44L304.04 61.04L304.04 59.12L304.04 50.88L301.96 49.04L305.72 45.60L308.36 47.88L309.68 46.84L310.36 47.68L308.64 49.08L308.64 58.60L308.68 60.24Q308.68 61.16 308.92 61.88Q309.16 62.60 309.76 63L309.76 63L311.24 61.76L311.96 62.76L307.16 66.08Q306.08 66.04 305.20 65.08Q304.32 64.12 304.12 62.20L304.12 62.20ZM324.68 63.20L319.20 66.04L314.96 62.40L313.44 63.36L312.88 62.60L315.56 60.88L315.56 51.24Q315.56 50.08 314.90 49.72Q314.24 49.36 313.64 49.36L313.64 49.36L313.64 48.76L320.16 42.24L320.92 42.24L320.92 46.84L325.68 46.84L323.80 49.04L320.92 49.04L320.92 61.24L322.80 63.16L324.12 62.44L324.68 63.20ZM326.72 66L326.72 66L326.32 65.64Q327.00 63.48 328.26 61.50Q329.52 59.52 331.08 57.64L331.08 57.64L331.32 57.36L328.64 57.36L327.68 58.32L327.08 57.76L330.36 53.92L334.36 53.92L337.08 50.88Q335.28 51.44 333.40 51.44L333.40 51.44Q331.88 51.44 330.66 51.14Q329.44 50.84 328.24 50.28L328.24 50.28L327.28 51.80L326.52 51.44L329.60 45.68Q331.04 46.24 332.56 46.64Q334.08 47.04 335.96 47.04L335.96 47.04Q337.52 47.04 338.94 46.74Q340.36 46.44 341.48 45.68L341.48 45.68L341.88 46.24Q340.64 48.40 339.16 50.28Q337.68 52.16 336.12 53.92L336.12 53.92L339.00 53.92L339.96 52.96L340.52 53.56L337.28 57.36L333.08 57.36Q332.68 57.80 332.32 58.24Q331.96 58.68 331.56 59.12L331.56 59.12L330.36 60.64Q332.36 60.04 334.44 60.04L334.44 60.04Q336.28 60.04 337.84 60.44Q339.40 60.84 340.92 61.60L340.92 61.60L342.04 60.24L342.64 60.64L338.40 65.80Q337.04 65.20 335.44 64.74Q333.84 64.28 331.96 64.28L331.96 64.28Q330.28 64.28 329.02 64.74Q327.76 65.20 326.72 66Z" fill="url(#lkGold)"></path>
  <path d="M147.97 88L143.67 88L143.67 87.28L144.92 87.28L144.92 79.97L143.67 79.97L143.67 79.25L148.01 79.25Q148.76 79.25 149.34 79.53Q149.93 79.80 150.26 80.29Q150.59 80.79 150.59 81.44L150.59 81.44L150.59 81.54Q150.59 82.15 150.36 82.55Q150.12 82.95 149.78 83.17Q149.44 83.40 149.12 83.50L149.12 83.50L149.12 83.65Q149.44 83.72 149.79 83.96Q150.13 84.19 150.36 84.59Q150.59 84.99 150.59 85.60L150.59 85.60L150.59 85.72Q150.59 86.44 150.25 86.95Q149.91 87.46 149.31 87.73Q148.72 88 147.97 88L147.97 88ZM145.72 83.95L145.72 87.28L147.89 87.28Q148.83 87.28 149.31 86.84Q149.79 86.40 149.79 85.66L149.79 85.66L149.79 85.56Q149.79 84.83 149.31 84.39Q148.83 83.95 147.89 83.95L147.89 83.95L145.72 83.95ZM145.72 79.97L145.72 83.22L147.94 83.22Q148.81 83.22 149.30 82.79Q149.79 82.36 149.79 81.66L149.79 81.66L149.79 81.54Q149.79 80.84 149.30 80.41Q148.81 79.97 147.94 79.97L147.94 79.97L145.72 79.97ZM157.46 88L156.62 88L159.48 79.25L160.91 79.25L163.77 88L162.93 88L162.18 85.67L158.21 85.67L157.46 88ZM160.12 79.72L158.43 84.95L161.96 84.95L160.27 79.72L160.12 79.72ZM170.99 88L170.19 88L170.19 79.25L173.62 79.25Q174.43 79.25 175.05 79.53Q175.67 79.80 176.03 80.32Q176.38 80.84 176.38 81.58L176.38 81.58L176.38 81.70Q176.38 82.59 175.96 83.09Q175.53 83.60 174.96 83.76L174.96 83.76L174.96 83.91Q175.39 83.92 175.69 84.19Q175.99 84.45 175.99 85.03L175.99 85.03L175.99 88L175.19 88L175.19 85.11Q175.19 84.71 174.97 84.50Q174.76 84.29 174.32 84.29L174.32 84.29L170.99 84.29L170.99 88ZM170.99 79.97L170.99 83.56L173.54 83.56Q174.52 83.56 175.05 83.11Q175.58 82.65 175.58 81.80L175.58 81.80L175.58 81.74Q175.58 80.89 175.06 80.43Q174.54 79.97 173.54 79.97L173.54 79.97L170.99 79.97ZM186.91 88L182.61 88L182.61 87.28L183.86 87.28L183.86 79.97L182.61 79.97L182.61 79.25L186.94 79.25Q187.69 79.25 188.28 79.53Q188.87 79.80 189.20 80.29Q189.53 80.79 189.53 81.44L189.53 81.44L189.53 81.54Q189.53 82.15 189.29 82.55Q189.06 82.95 188.72 83.17Q188.38 83.40 188.06 83.50L188.06 83.50L188.06 83.65Q188.38 83.72 188.72 83.96Q189.07 84.19 189.30 84.59Q189.53 84.99 189.53 85.60L189.53 85.60L189.53 85.72Q189.53 86.44 189.19 86.95Q188.84 87.46 188.25 87.73Q187.66 88 186.91 88L186.91 88ZM184.66 83.95L184.66 87.28L186.83 87.28Q187.77 87.28 188.25 86.84Q188.73 86.40 188.73 85.66L188.73 85.66L188.73 85.56Q188.73 84.83 188.25 84.39Q187.77 83.95 186.83 83.95L186.83 83.95L184.66 83.95ZM184.66 79.97L184.66 83.22L186.88 83.22Q187.74 83.22 188.24 82.79Q188.73 82.36 188.73 81.66L188.73 81.66L188.73 81.54Q188.73 80.84 188.24 80.41Q187.74 79.97 186.88 79.97L186.88 79.97L184.66 79.97ZM201.67 88L196.33 88L196.33 79.25L201.62 79.25L201.62 79.97L197.13 79.97L197.13 83.25L201.27 83.25L201.27 83.97L197.13 83.97L197.13 87.28L201.67 87.28L201.67 88ZM209.22 88L208.42 88L208.42 79.25L211.84 79.25Q212.66 79.25 213.28 79.53Q213.89 79.80 214.25 80.32Q214.61 80.84 214.61 81.58L214.61 81.58L214.61 81.70Q214.61 82.59 214.18 83.09Q213.76 83.60 213.18 83.76L213.18 83.76L213.18 83.91Q213.62 83.92 213.92 84.19Q214.22 84.45 214.22 85.03L214.22 85.03L214.22 88L213.42 88L213.42 85.11Q213.42 84.71 213.20 84.50Q212.98 84.29 212.54 84.29L212.54 84.29L209.22 84.29L209.22 88ZM209.22 79.97L209.22 83.56L211.77 83.56Q212.74 83.56 213.28 83.11Q213.81 82.65 213.81 81.80L213.81 81.80L213.81 81.74Q213.81 80.89 213.29 80.43Q212.77 79.97 211.77 79.97L211.77 79.97L209.22 79.97ZM232.38 88.17L232.38 88.17Q231.44 88.17 230.71 87.84Q229.97 87.51 229.54 86.83Q229.12 86.15 229.12 85.10L229.12 85.10L229.12 84.86L229.92 84.86L229.92 85.10Q229.92 86.31 230.61 86.89Q231.31 87.47 232.38 87.47L232.38 87.47Q233.47 87.47 234.06 86.97Q234.64 86.46 234.64 85.67L234.64 85.67Q234.64 85.15 234.39 84.83Q234.13 84.51 233.67 84.32Q233.22 84.13 232.62 83.97L232.62 83.97L231.82 83.78Q231.11 83.59 230.54 83.31Q229.98 83.03 229.66 82.57Q229.33 82.11 229.33 81.40L229.33 81.40Q229.33 80.69 229.70 80.16Q230.07 79.64 230.72 79.36Q231.37 79.08 232.23 79.08L232.23 79.08Q233.09 79.08 233.79 79.38Q234.48 79.67 234.89 80.26Q235.29 80.84 235.29 81.71L235.29 81.71L235.29 82.30L234.49 82.30L234.49 81.71Q234.49 81.03 234.19 80.60Q233.89 80.17 233.38 79.97Q232.87 79.78 232.23 79.78L232.23 79.78Q231.32 79.78 230.72 80.19Q230.13 80.61 230.13 81.40L230.13 81.40Q230.13 81.92 230.38 82.24Q230.62 82.55 231.06 82.74Q231.51 82.92 232.11 83.08L232.11 83.08L232.91 83.28Q233.59 83.44 234.17 83.71Q234.74 83.97 235.09 84.44Q235.44 84.91 235.44 85.67L235.44 85.67Q235.44 86.44 235.06 87Q234.68 87.56 233.99 87.87Q233.31 88.17 232.38 88.17ZM244.81 88L244.01 88L244.01 79.97L241.08 79.97L241.08 79.25L247.73 79.25L247.73 79.97L244.81 79.97L244.81 88ZM257.23 88.17L257.23 88.17Q256.29 88.17 255.59 87.84Q254.88 87.51 254.48 86.84Q254.08 86.16 254.08 85.14L254.08 85.14L254.08 79.25L254.88 79.25L254.88 85.14Q254.88 86.31 255.50 86.88Q256.12 87.45 257.23 87.45L257.23 87.45Q258.34 87.45 258.96 86.88Q259.58 86.31 259.58 85.14L259.58 85.14L259.58 79.25L260.38 79.25L260.38 85.14Q260.38 86.16 259.99 86.84Q259.59 87.51 258.88 87.84Q258.17 88.17 257.23 88.17ZM270.31 88L266.98 88L266.98 87.28L268.23 87.28L268.23 79.97L266.98 79.97L266.98 79.25L270.31 79.25Q272.02 79.25 272.97 80.12Q273.93 80.99 273.93 82.83L273.93 82.83L273.93 84.44Q273.93 86.28 272.97 87.14Q272.02 88 270.31 88L270.31 88ZM269.03 79.99L269.03 87.28L270.31 87.28Q271.68 87.28 272.41 86.61Q273.13 85.95 273.13 84.47L273.13 84.47L273.13 82.79Q273.13 81.30 272.41 80.64Q271.68 79.99 270.31 79.99L270.31 79.99L269.03 79.99ZM281.53 88L280.73 88L280.73 79.25L281.53 79.25L281.53 88ZM291.77 88.17L291.77 88.17Q290.23 88.17 289.32 87.27Q288.41 86.36 288.41 84.61L288.41 84.61L288.41 82.64Q288.41 80.89 289.32 79.98Q290.23 79.08 291.77 79.08L291.77 79.08Q293.31 79.08 294.22 79.98Q295.13 80.89 295.13 82.64L295.13 82.64L295.13 84.61Q295.13 86.36 294.22 87.27Q293.31 88.17 291.77 88.17ZM291.77 87.45L291.77 87.45Q292.99 87.45 293.66 86.71Q294.33 85.97 294.33 84.64L294.33 84.64L294.33 82.61Q294.33 81.28 293.66 80.54Q292.99 79.80 291.77 79.80L291.77 79.80Q290.56 79.80 289.88 80.54Q289.21 81.28 289.21 82.61L289.21 82.61L289.21 84.64Q289.21 85.97 289.88 86.71Q290.56 87.45 291.77 87.45Z" fill="#9a8d77" opacity="0.95"></path>
</svg>