<svg xmlns="http://www.w3.org/2000/svg" viewBox="0 0 512 512" width="512" height="512" role="img" aria-label="Brunetti Cutz icono PWA">
  <defs>
    <linearGradient id="icGold" gradientUnits="userSpaceOnUse" x1="0" y1="100" x2="0" y2="430">
      <stop offset="0%" stop-color="#f1e2b0"></stop>
      <stop offset="20%" stop-color="#e9d7a0"></stop>
      <stop offset="52%" stop-color="#c9a14e"></stop>
      <stop offset="80%" stop-color="#9c7a32"></stop>
      <stop offset="100%" stop-color="#7a5e26"></stop>
    </linearGradient>
    <radialGradient id="icBg" cx="35%" cy="25%" r="80%" gradientUnits="userSpaceOnUse" x1="0" y1="0" x2="512" y2="512">
      <stop offset="0%" stop-color="#1c1c20"></stop>
      <stop offset="45%" stop-color="#101012"></stop>
      <stop offset="100%" stop-color="#06060a"></stop>
    </radialGradient>
    <linearGradient id="icGlare" x1="0" y1="0" x2="1" y2="1">
      <stop offset="0%" stop-color="#ffffff" stop-opacity="0.09"></stop>
      <stop offset="40%" stop-color="#ffffff" stop-opacity="0"></stop>
    </linearGradient>
    <linearGradient id="icBorder" x1="0" y1="0" x2="0" y2="1">
      <stop offset="0%" stop-color="#e7c87e" stop-opacity="0.6"></stop>
      <stop offset="100%" stop-color="#7a5e26" stop-opacity="0.3"></stop>
    </linearGradient>
    <filter id="icGlow" x="-8%" y="-8%" width="116%" height="116%">
      <feDropShadow dx="0" dy="4" stdDeviation="8" flood-color="#000000" flood-opacity="0.7"></feDropShadow>
      <feDropShadow dx="0" dy="0" stdDeviation="22" flood-color="#c9a14e" flood-opacity="0.22"></feDropShadow>
    </filter>
    <clipPath id="icClip"><rect x="0" y="0" width="512" height="512" rx="108" ry="108"></rect></clipPath>
  </defs>
  <rect x="0" y="0" width="512" height="512" rx="108" ry="108" fill="url(#icBg)"></rect>
  <rect x="0" y="0" width="512" height="512" rx="108" ry="108" fill="url(#icGlare)" clip-path="url(#icClip)"></rect>
  <rect x="1" y="1" width="510" height="510" rx="107.5" ry="107.5" fill="none" stroke="url(#icBorder)" stroke-width="1.8"></rect>
  <path d="M110.68 322.61L105.72 322.61Q113.99 308.35 127.53 297.81Q141.06 287.27 158.63 283.76L158.63 283.76Q161.11 280.04 162.56 275.49Q164.00 270.95 164.00 264.75L164.00 264.75L164.00 200.06Q175.58 185.39 191.49 173.81Q207.40 162.24 226.83 155.83L226.83 155.83L260.10 194.89L234.48 213.08Q242.54 215.97 249.56 220.11Q256.59 224.24 262.79 229.20L262.79 229.20L262.79 281.07L193.56 316.83Q184.26 311.87 174.03 309.28Q163.80 306.70 153.26 306.70L153.26 306.70Q139.41 306.70 128.77 311.04Q118.12 315.38 110.68 322.61L110.68 322.61ZM116.88 296.37L116.88 296.37L114.82 291.41Q123.50 286.45 125.46 276.84Q127.42 267.23 127.42 254.21L127.42 254.21L127.42 240.15L121.22 240.15Q115.44 240.15 111.82 243.15Q108.20 246.15 109.24 252.14L109.24 252.14L105.31 252.14Q102.21 246.35 102.21 239.95L102.21 239.95Q102.21 232.51 105.72 227.55Q109.24 222.59 114.40 220.31L114.40 220.31Q117.50 218.87 120.81 218.14Q124.12 217.42 127.42 217.01L127.42 217.01L127.42 211.63L127.42 211.63Q127.42 202.95 131.04 198.92Q134.66 194.89 139.82 191.59L139.82 191.59Q148.71 186.21 157.39 180.63L157.39 180.63Q156.15 180.63 155.12 180.63L155.12 180.63Q147.88 180.63 142.30 178.26Q136.72 175.88 129.49 175.88L129.49 175.88Q124.12 175.88 120.40 178.36Q116.68 180.84 115.23 184.97L115.23 184.97L110.27 184.97Q112.96 178.57 117.92 172.68Q122.88 166.79 130.01 162.96Q137.14 159.14 146.23 159.14L146.23 159.14Q153.46 159.14 160.28 161.10Q167.10 163.07 174.34 163.07L174.34 163.07Q179.71 163.07 184.46 161.62Q189.22 160.17 192.73 158.11L192.73 158.11L191.49 162.65L160.90 186.63Q157.60 189.31 155.84 192.62Q154.08 195.93 154.08 201.92L154.08 201.92L154.08 253.17Q154.08 265.99 148.81 274.67Q143.54 283.35 134.97 288.62Q126.39 293.89 116.88 296.37ZM205.54 226.10L233.03 205.64L205.54 173.19L205.54 226.10ZM173.72 282.31L173.72 282.31Q180.95 282.31 187.46 283.55Q193.97 284.79 199.55 287.27L199.55 287.27L199.55 174.43Q196.24 176.91 193.87 180.84Q191.49 184.77 191.49 189.52L191.49 189.52L191.49 243.46Q191.49 253.59 188.29 260.51Q185.08 267.43 180.02 272.60Q174.96 277.77 169.38 282.31L169.38 282.31Q171.44 282.31 173.72 282.31ZM205.54 227.55L205.54 227.55L205.54 255.24L232.62 241.60Q226.62 237.26 219.80 233.75Q212.98 230.23 205.54 227.55ZM235.72 246.77L205.54 261.85L205.54 276.94L235.72 261.85L235.72 246.77ZM218.77 299.05L235.72 291.20L235.72 268.47L205.54 283.55L205.54 289.96Q212.57 293.68 218.77 299.05L218.77 299.05ZM359.64 319.72L359.64 319.72Q344.76 319.72 331.95 313.62Q319.14 307.53 309.53 296.99Q299.92 286.45 294.54 272.91Q289.17 259.37 289.17 244.49L289.17 244.49Q289.17 225.27 297.02 209.57Q304.88 193.86 317.69 182.80Q330.50 171.75 345.59 166.58L345.59 166.58L347.45 169.68Q333.81 176.71 325.34 190.35L325.34 190.35L379.90 157.07L379.90 157.07L379.90 157.07Q387.54 162.86 396.22 167.20Q404.90 171.54 414.82 174.85L414.82 174.85L421.44 169.27L423.09 171.33L398.50 196.96Q385.48 191.79 373.28 184.77L373.28 184.77L373.28 295.95Q387.75 294.09 398.19 285.62Q408.62 277.15 414.00 266.40L414.00 266.40L417.92 266.40Q417.10 281.90 409.24 293.89Q401.39 305.87 388.47 312.80Q375.56 319.72 359.64 319.72ZM357.99 177.33L357.99 254.62L322.24 269.50Q328.44 281.69 339.39 289.03Q350.34 296.37 366.05 296.37L366.05 296.37Q366.67 296.37 367.29 296.37L367.29 296.37L367.29 181.25Q363.36 178.98 359.64 176.29L359.64 176.29L357.99 177.33ZM314.59 233.75L314.59 233.75Q314.59 250.90 319.96 264.54L319.96 264.54L331.33 259.79L331.33 193.65L320.38 200.27Q314.59 215.15 314.59 233.75Z" fill="url(#icGold)" filter="url(#icGlow)"></path>
</svg>