<svg xmlns="http://www.w3.org/2000/svg" viewBox="0 0 381 112" width="381" height="112" role="img" aria-label="Brunetti Cutz">
  <defs>
    <linearGradient id="lkGold" gradientUnits="userSpaceOnUse" x1="0" y1="10" x2="0" y2="102">
      <stop offset="0%" stop-color="#f1e2b0"></stop>
      <stop offset="20%" stop-color="#e9d7a0"></stop>
      <stop offset="52%" stop-color="#c9a14e"></stop>
      <stop offset="80%" stop-color="#9c7a32"></stop>
      <stop offset="100%" stop-color="#7a5e26"></stop>
    </linearGradient>
    <radialGradient id="lkBadge" cx="35%" cy="28%" r="75%">
      <stop offset="0%" stop-color="#1e1e22"></stop>
      <stop offset="100%" stop-color="#0a0a0d"></stop>
    </radialGradient>
  </defs>
  <circle cx="56" cy="56" r="54" fill="none" stroke="#000000" stroke-width="6" opacity="0.35"></circle>
  <circle cx="56" cy="56" r="52" fill="url(#lkBadge)"></circle>
  <circle cx="56" cy="56" r="51.5" fill="none" stroke="url(#lkGold)" stroke-width="1.4" opacity="0.85"></circle>
  <circle cx="56" cy="56" r="44.5" fill="none" stroke="#c9a14e" stroke-width="0.7" opacity="0.4"></circle>
  <g fill="url(#lkGold)">
    <path d="M45.41 53.01L44.65 53.01Q45.91 50.83 47.99 49.21Q50.06 47.60 52.75 47.06L52.75 47.06Q53.13 46.49 53.36 45.79Q53.58 45.10 53.58 44.15L53.58 44.15L53.58 34.23Q55.35 31.99 57.79 30.21Q60.23 28.44 63.20 27.46L63.20 27.46L68.30 33.44L64.38 36.23Q65.61 36.67 66.69 37.31Q67.76 37.94 68.71 38.70L68.71 38.70L68.71 46.65L58.11 52.13Q56.68 51.37 55.11 50.97Q53.55 50.58 51.93 50.58L51.93 50.58Q49.81 50.58 48.18 51.24Q46.55 51.91 45.41 53.01L45.41 53.01ZM46.36 48.99L46.36 48.99L46.04 48.23Q47.37 47.47 47.67 46.00Q47.97 44.53 47.97 42.53L47.97 42.53L47.97 40.38L47.02 40.38Q46.14 40.38 45.58 40.84Q45.03 41.30 45.19 42.22L45.19 42.22L44.58 42.22Q44.11 41.33 44.11 40.35L44.11 40.35Q44.11 39.21 44.65 38.45Q45.19 37.69 45.98 37.34L45.98 37.34Q46.45 37.12 46.96 37.01Q47.47 36.89 47.97 36.83L47.97 36.83L47.97 36.01L47.97 36.01Q47.97 34.68 48.53 34.06Q49.08 33.44 49.87 32.94L49.87 32.94Q51.23 32.11 52.56 31.26L52.56 31.26Q52.37 31.26 52.22 31.26L52.22 31.26Q51.11 31.26 50.25 30.89Q49.40 30.53 48.29 30.53L48.29 30.53Q47.47 30.53 46.90 30.91Q46.33 31.29 46.10 31.92L46.10 31.92L45.34 31.92Q45.76 30.94 46.52 30.04Q47.28 29.14 48.37 28.55Q49.46 27.96 50.85 27.96L50.85 27.96Q51.96 27.96 53.01 28.27Q54.05 28.57 55.16 28.57L55.16 28.57Q55.98 28.57 56.71 28.34Q57.44 28.12 57.98 27.81L57.98 27.81L57.79 28.50L53.10 32.18Q52.60 32.59 52.33 33.09Q52.06 33.60 52.06 34.52L52.06 34.52L52.06 42.37Q52.06 44.34 51.25 45.67Q50.44 47.00 49.13 47.80Q47.81 48.61 46.36 48.99ZM59.94 38.23L64.15 35.09L59.94 30.12L59.94 38.23ZM55.07 46.84L55.07 46.84Q56.17 46.84 57.17 47.03Q58.17 47.22 59.02 47.60L59.02 47.60L59.02 30.31Q58.52 30.69 58.15 31.29Q57.79 31.89 57.79 32.62L57.79 32.62L57.79 40.88Q57.79 42.44 57.30 43.50Q56.81 44.56 56.03 45.35Q55.26 46.14 54.40 46.84L54.40 46.84Q54.72 46.84 55.07 46.84ZM59.94 38.45L59.94 38.45L59.94 42.69L64.09 40.60Q63.17 39.94 62.13 39.40Q61.08 38.86 59.94 38.45ZM64.57 41.39L59.94 43.70L59.94 46.02L64.57 43.70L64.57 41.39ZM61.97 49.40L64.57 48.20L64.57 44.72L59.94 47.03L59.94 48.01Q61.02 48.58 61.97 49.40L61.97 49.40Z"></path>
    <path d="M57.90 88.57L57.90 88.57Q55.62 88.57 53.66 87.64Q51.69 86.70 50.22 85.09Q48.75 83.47 47.92 81.40Q47.10 79.32 47.10 77.04L47.10 77.04Q47.10 74.10 48.30 71.69Q49.51 69.28 51.47 67.59Q53.44 65.90 55.75 65.10L55.75 65.10L56.03 65.58Q53.94 66.66 52.64 68.75L52.64 68.75L61.00 63.65L61.00 63.65L61.00 63.65Q62.17 64.53 63.51 65.20Q64.84 65.86 66.36 66.37L66.36 66.37L67.37 65.52L67.62 65.83L63.85 69.76Q61.86 68.97 59.99 67.89L59.99 67.89L59.99 84.93Q62.21 84.64 63.81 83.34Q65.41 82.05 66.23 80.40L66.23 80.40L66.83 80.40Q66.70 82.78 65.50 84.61Q64.30 86.45 62.32 87.51Q60.34 88.57 57.90 88.57ZM57.65 66.75L57.65 78.59L52.17 80.88Q53.12 82.74 54.80 83.87Q56.48 84.99 58.88 84.99L58.88 84.99Q58.98 84.99 59.07 84.99L59.07 84.99L59.07 67.35Q58.47 67.00 57.90 66.59L57.90 66.59L57.65 66.75ZM51.00 75.40L51.00 75.40Q51.00 78.03 51.82 80.11L51.82 80.11L53.56 79.39L53.56 69.25L51.88 70.27Q51.00 72.55 51.00 75.40Z"></path>
  </g>
  <path d="M129.72 67.28L128.76 67.28Q130.36 64.52 132.98 62.48Q135.60 60.44 139 59.76L139 59.76Q139.48 59.04 139.76 58.16Q140.04 57.28 140.04 56.08L140.04 56.08L140.04 43.56Q142.28 40.72 145.36 38.48Q148.44 36.24 152.20 35L152.20 35L158.64 42.56L153.68 46.08Q155.24 46.64 156.60 47.44Q157.96 48.24 159.16 49.20L159.16 49.20L159.16 59.24L145.76 66.16Q143.96 65.20 141.98 64.70Q140 64.20 137.96 64.20L137.96 64.20Q135.28 64.20 133.22 65.04Q131.16 65.88 129.72 67.28L129.72 67.28ZM130.92 62.20L130.92 62.20L130.52 61.24Q132.20 60.28 132.58 58.42Q132.96 56.56 132.96 54.04L132.96 54.04L132.96 51.32L131.76 51.32Q130.64 51.32 129.94 51.90Q129.24 52.48 129.44 53.64L129.44 53.64L128.68 53.64Q128.08 52.52 128.08 51.28L128.08 51.28Q128.08 49.84 128.76 48.88Q129.44 47.92 130.44 47.48L130.44 47.48Q131.04 47.20 131.68 47.06Q132.32 46.92 132.96 46.84L132.96 46.84L132.96 45.80L132.96 45.80Q132.96 44.12 133.66 43.34Q134.36 42.56 135.36 41.92L135.36 41.92Q137.08 40.88 138.76 39.80L138.76 39.80Q138.52 39.80 138.32 39.80L138.32 39.80Q136.92 39.80 135.84 39.34Q134.76 38.88 133.36 38.88L133.36 38.88Q132.32 38.88 131.60 39.36Q130.88 39.84 130.60 40.64L130.60 40.64L129.64 40.64Q130.16 39.40 131.12 38.26Q132.08 37.12 133.46 36.38Q134.84 35.64 136.60 35.64L136.60 35.64Q138 35.64 139.32 36.02Q140.64 36.40 142.04 36.40L142.04 36.40Q143.08 36.40 144 36.12Q144.92 35.84 145.60 35.44L145.60 35.44L145.36 36.32L139.44 40.96Q138.80 41.48 138.46 42.12Q138.12 42.76 138.12 43.92L138.12 43.92L138.12 53.84Q138.12 56.32 137.10 58Q136.08 59.68 134.42 60.70Q132.76 61.72 130.92 62.20ZM148.08 48.60L153.40 44.64L148.08 38.36L148.08 48.60ZM141.92 59.48L141.92 59.48Q143.32 59.48 144.58 59.72Q145.84 59.96 146.92 60.44L146.92 60.44L146.92 38.60Q146.28 39.08 145.82 39.84Q145.36 40.60 145.36 41.52L145.36 41.52L145.36 51.96Q145.36 53.92 144.74 55.26Q144.12 56.60 143.14 57.60Q142.16 58.60 141.08 59.48L141.08 59.48Q141.48 59.48 141.92 59.48ZM148.08 48.88L148.08 48.88L148.08 54.24L153.32 51.60Q152.16 50.76 150.84 50.08Q149.52 49.40 148.08 48.88ZM153.92 52.60L148.08 55.52L148.08 58.44L153.92 55.52L153.92 52.60ZM150.64 62.72L153.92 61.20L153.92 56.80L148.08 59.72L148.08 60.96Q149.44 61.68 150.64 62.72L150.64 62.72ZM173.72 61.88L167.76 66.20L163.36 62.76L162 63.72L161.44 62.96L163.92 61.20L163.92 50.68L162.60 48.96L161.04 49.92L160.48 49.12L165.84 45.48L168.80 48.64L171.56 45.48L172 45.48Q172.60 46.48 173.80 46.48L173.80 46.48Q174.40 46.48 174.86 46.18Q175.32 45.88 175.60 45.48L175.60 45.48L176.80 45.48Q176.56 47.96 175.82 49.16Q175.08 50.36 174.24 50.72Q173.40 51.08 172.80 51.08L172.80 51.08Q172.16 51.08 171.18 50.72Q170.20 50.36 169.24 49.40L169.24 49.40L169.24 61.20L170.80 62.44L172.96 61L173.72 61.88ZM189.24 62.20L184.16 66.16L178.72 61.60L180 60.56L180 51.16L180 51.16Q180 50.24 179.64 49.56Q179.28 48.88 178.40 48.88L178.40 48.88Q177.88 48.88 177.50 49.10Q177.12 49.32 176.84 49.56L176.84 49.56L176.44 49L181.60 45.64Q183 46.20 183.88 47.34Q184.76 48.48 184.76 50.44L184.76 50.44L184.76 60.08L187.28 62.44L189.16 61.04L189.16 59.12L189.16 50.88L187.08 49.04L190.84 45.60L193.48 47.88L194.80 46.84L195.48 47.68L193.76 49.08L193.76 58.60L193.80 60.24Q193.80 61.16 194.04 61.88Q194.28 62.60 194.88 63L194.88 63L196.36 61.76L197.08 62.76L192.28 66.08Q191.20 66.04 190.32 65.08Q189.44 64.12 189.24 62.20L189.24 62.20ZM207.92 63.12L204.08 66.60L199.48 62.96L201 61.60L201 50.96L199.48 49.24L197.92 50.20L197.36 49.44L202.92 45.60L206 49.04L210.40 45.60L214.92 49.48L216.60 48.12L217.32 49L215.40 50.56L215.40 61.04L217.12 62.56L218.64 61.40L219.40 62.56L213.48 66.60L209.44 62.96L210.80 61.60L210.80 51.72L207.92 49.24L206.20 50.60L206.20 61.60L207.92 63.12ZM222.20 62L220.40 63.40L219.72 62.56L221.60 61L221.60 50.48L231.20 45.48L235.20 51.64L235.20 51.80L226.60 57.20L226.60 58.92L231.40 62.16L235.80 58.72L236.36 59.68L228.12 66.40L222.20 62ZM227.36 48.56L226.60 49L226.60 55.80L230.60 53.28L227.36 48.56ZM249.12 63.20L243.64 66.04L239.40 62.40L237.88 63.36L237.32 62.60L240 60.88L240 51.24Q240 50.08 239.34 49.72Q238.68 49.36 238.08 49.36L238.08 49.36L238.08 48.76L244.60 42.24L245.36 42.24L245.36 46.84L250.12 46.84L248.24 49.04L245.36 49.04L245.36 61.24L247.24 63.16L248.56 62.44L249.12 63.20ZM262.84 63.20L257.36 66.04L253.12 62.40L251.60 63.36L251.04 62.60L253.72 60.88L253.72 51.24Q253.72 50.08 253.06 49.72Q252.40 49.36 251.80 49.36L251.80 49.36L251.80 48.76L258.32 42.24L259.08 42.24L259.08 46.84L263.84 46.84L261.96 49.04L259.08 49.04L259.08 61.24L260.96 63.16L262.28 62.44L262.84 63.20ZM273.80 40.64L269.96 43.96L266.56 40.08L270.40 36.76L273.80 40.64ZM276.88 62.16L271.12 66.20L267.28 62.76L265.92 63.72L265.36 62.96L267.84 61.20L267.84 50.68L266.52 48.96L264.96 49.92L264.40 49.12L269.76 45.48L272.84 49.12L272.84 61.20L274.16 62.56L275.92 61.40L276.88 62.16ZM303.68 66.72L303.68 66.72Q300.80 66.72 298.32 65.54Q295.84 64.36 293.98 62.32Q292.12 60.28 291.08 57.66Q290.04 55.04 290.04 52.16L290.04 52.16Q290.04 48.44 291.56 45.40Q293.08 42.36 295.56 40.22Q298.04 38.08 300.96 37.08L300.96 37.08L301.32 37.68Q298.68 39.04 297.04 41.68L297.04 41.68L307.60 35.24L307.60 35.24L307.60 35.24Q309.08 36.36 310.76 37.20Q312.44 38.04 314.36 38.68L314.36 38.68L315.64 37.60L315.96 38L311.20 42.96Q308.68 41.96 306.32 40.60L306.32 40.60L306.32 62.12Q309.12 61.76 311.14 60.12Q313.16 58.48 314.20 56.40L314.20 56.40L314.96 56.40Q314.80 59.40 313.28 61.72Q311.76 64.04 309.26 65.38Q306.76 66.72 303.68 66.72ZM303.36 39.16L303.36 54.12L296.44 57Q297.64 59.36 299.76 60.78Q301.88 62.20 304.92 62.20L304.92 62.20Q305.04 62.20 305.16 62.20L305.16 62.20L305.16 39.92Q304.40 39.48 303.68 38.96L303.68 38.96L303.36 39.16ZM294.96 50.08L294.96 50.08Q294.96 53.40 296.00 56.04L296.00 56.04L298.20 55.12L298.20 42.32L296.08 43.60Q294.96 46.48 294.96 50.08ZM329.16 62.20L324.08 66.16L318.64 61.60L319.92 60.56L319.92 51.16L319.92 51.16Q319.92 50.24 319.56 49.56Q319.20 48.88 318.32 48.88L318.32 48.88Q317.80 48.88 317.42 49.10Q317.04 49.32 316.76 49.56L316.76 49.56L316.36 49L321.52 45.64Q322.92 46.20 323.80 47.34Q324.68 48.48 324.68 50.44L324.68 50.44L324.68 60.08L327.20 62.44L329.08 61.04L329.08 59.12L329.08 50.88L327.00 49.04L330.76 45.60L333.40 47.88L334.72 46.84L335.40 47.68L333.68 49.08L333.68 58.60L333.72 60.24Q333.72 61.16 333.96 61.88Q334.20 62.60 334.80 63L334.80 63L336.28 61.76L337.00 62.76L332.20 66.08Q331.12 66.04 330.24 65.08Q329.36 64.12 329.16 62.20L329.16 62.20ZM349.72 63.20L344.24 66.04L340.00 62.40L338.48 63.36L337.92 62.60L340.60 60.88L340.60 51.24Q340.60 50.08 339.94 49.72Q339.28 49.36 338.68 49.36L338.68 49.36L338.68 48.76L345.20 42.24L345.96 42.24L345.96 46.84L350.72 46.84L348.84 49.04L345.96 49.04L345.96 61.24L347.84 63.16L349.16 62.44L349.72 63.20ZM351.76 66L351.76 66L351.36 65.64Q352.04 63.48 353.30 61.50Q354.56 59.52 356.12 57.64L356.12 57.64L356.36 57.36L353.68 57.36L352.72 58.32L352.12 57.76L355.40 53.92L359.40 53.92L362.12 50.88Q360.32 51.44 358.44 51.44L358.44 51.44Q356.92 51.44 355.70 51.14Q354.48 50.84 353.28 50.28L353.28 50.28L352.32 51.80L351.56 51.44L354.64 45.68Q356.08 46.24 357.60 46.64Q359.12 47.04 361.00 47.04L361.00 47.04Q362.56 47.04 363.98 46.74Q365.40 46.44 366.52 45.68L366.52 45.68L366.92 46.24Q365.68 48.40 364.20 50.28Q362.72 52.16 361.16 53.92L361.16 53.92L364.04 53.92L365.00 52.96L365.56 53.56L362.32 57.36L358.12 57.36Q357.72 57.80 357.36 58.24Q357.00 58.68 356.60 59.12L356.60 59.12L355.40 60.64Q357.40 60.04 359.48 60.04L359.48 60.04Q361.32 60.04 362.88 60.44Q364.44 60.84 365.96 61.60L365.96 61.60L367.08 60.24L367.68 60.64L363.44 65.80Q362.08 65.20 360.48 64.74Q358.88 64.28 357.00 64.28L357.00 64.28Q355.32 64.28 354.06 64.74Q352.80 65.20 351.76 66Z" fill="url(#lkGold)"></path>
  <path d="M132.90 88L128.60 88L128.60 87.28L129.85 87.28L129.85 79.97L128.60 79.97L128.60 79.25L132.94 79.25Q133.69 79.25 134.28 79.53Q134.86 79.80 135.19 80.29Q135.53 80.79 135.53 81.44L135.53 81.44L135.53 81.54Q135.53 82.15 135.29 82.55Q135.05 82.95 134.71 83.17Q134.38 83.40 134.05 83.50L134.05 83.50L134.05 83.65Q134.38 83.72 134.72 83.96Q135.06 84.19 135.29 84.59Q135.53 84.99 135.53 85.60L135.53 85.60L135.53 85.72Q135.53 86.44 135.18 86.95Q134.84 87.46 134.24 87.73Q133.65 88 132.90 88L132.90 88ZM130.65 83.95L130.65 87.28L132.82 87.28Q133.76 87.28 134.24 86.84Q134.72 86.40 134.72 85.66L134.72 85.66L134.72 85.56Q134.72 84.83 134.24 84.39Q133.76 83.95 132.82 83.95L132.82 83.95L130.65 83.95ZM130.65 79.97L130.65 83.22L132.88 83.22Q133.74 83.22 134.23 82.79Q134.72 82.36 134.72 81.66L134.72 81.66L134.72 81.54Q134.72 80.84 134.23 80.41Q133.74 79.97 132.88 79.97L132.88 79.97L130.65 79.97ZM142.39 88L141.55 88L144.41 79.25L145.84 79.25L148.70 88L147.86 88L147.11 85.67L143.14 85.67L142.39 88ZM145.05 79.72L143.36 84.95L146.89 84.95L145.20 79.72L145.05 79.72ZM155.92 88L155.12 88L155.12 79.25L158.55 79.25Q159.36 79.25 159.98 79.53Q160.60 79.80 160.96 80.32Q161.31 80.84 161.31 81.58L161.31 81.58L161.31 81.70Q161.31 82.59 160.89 83.09Q160.46 83.60 159.89 83.76L159.89 83.76L159.89 83.91Q160.32 83.92 160.62 84.19Q160.92 84.45 160.92 85.03L160.92 85.03L160.92 88L160.12 88L160.12 85.11Q160.12 84.71 159.91 84.50Q159.69 84.29 159.25 84.29L159.25 84.29L155.92 84.29L155.92 88ZM155.92 79.97L155.92 83.56L158.47 83.56Q159.45 83.56 159.98 83.11Q160.51 82.65 160.51 81.80L160.51 81.80L160.51 81.74Q160.51 80.89 159.99 80.43Q159.47 79.97 158.47 79.97L158.47 79.97L155.92 79.97ZM171.84 88L167.54 88L167.54 87.28L168.79 87.28L168.79 79.97L167.54 79.97L167.54 79.25L171.87 79.25Q172.62 79.25 173.21 79.53Q173.80 79.80 174.13 80.29Q174.46 80.79 174.46 81.44L174.46 81.44L174.46 81.54Q174.46 82.15 174.22 82.55Q173.99 82.95 173.65 83.17Q173.31 83.40 172.99 83.50L172.99 83.50L172.99 83.65Q173.31 83.72 173.66 83.96Q174.00 84.19 174.23 84.59Q174.46 84.99 174.46 85.60L174.46 85.60L174.46 85.72Q174.46 86.44 174.12 86.95Q173.77 87.46 173.18 87.73Q172.59 88 171.84 88L171.84 88ZM169.59 83.95L169.59 87.28L171.76 87.28Q172.70 87.28 173.18 86.84Q173.66 86.40 173.66 85.66L173.66 85.66L173.66 85.56Q173.66 84.83 173.18 84.39Q172.70 83.95 171.76 83.95L171.76 83.95L169.59 83.95ZM169.59 79.97L169.59 83.22L171.81 83.22Q172.67 83.22 173.17 82.79Q173.66 82.36 173.66 81.66L173.66 81.66L173.66 81.54Q173.66 80.84 173.17 80.41Q172.67 79.97 171.81 79.97L171.81 79.97L169.59 79.97ZM186.60 88L181.26 88L181.26 79.25L186.55 79.25L186.55 79.97L182.06 79.97L182.06 83.25L186.20 83.25L186.20 83.97L182.06 83.97L182.06 87.28L186.60 87.28L186.60 88ZM194.15 88L193.35 88L193.35 79.25L196.77 79.25Q197.59 79.25 198.21 79.53Q198.82 79.80 199.18 80.32Q199.54 80.84 199.54 81.58L199.54 81.58L199.54 81.70Q199.54 82.59 199.11 83.09Q198.69 83.60 198.11 83.76L198.11 83.76L198.11 83.91Q198.55 83.92 198.85 84.19Q199.15 84.45 199.15 85.03L199.15 85.03L199.15 88L198.35 88L198.35 85.11Q198.35 84.71 198.13 84.50Q197.91 84.29 197.47 84.29L197.47 84.29L194.15 84.29L194.15 88ZM194.15 79.97L194.15 83.56L196.70 83.56Q197.67 83.56 198.21 83.11Q198.74 82.65 198.74 81.80L198.74 81.80L198.74 81.74Q198.74 80.89 198.22 80.43Q197.70 79.97 196.70 79.97L196.70 79.97L194.15 79.97ZM217.31 88.17L217.31 88.17Q216.37 88.17 215.64 87.84Q214.90 87.51 214.47 86.83Q214.05 86.15 214.05 85.10L214.05 85.10L214.05 84.86L214.85 84.86L214.85 85.10Q214.85 86.31 215.54 86.89Q216.24 87.47 217.31 87.47L217.31 87.47Q218.40 87.47 218.99 86.97Q219.57 86.46 219.57 85.67L219.57 85.67Q219.57 85.15 219.32 84.83Q219.06 84.51 218.61 84.32Q218.15 84.13 217.55 83.97L217.55 83.97L216.75 83.78Q216.04 83.59 215.47 83.31Q214.91 83.03 214.59 82.57Q214.26 82.11 214.26 81.40L214.26 81.40Q214.26 80.69 214.63 80.16Q215.00 79.64 215.65 79.36Q216.30 79.08 217.16 79.08L217.16 79.08Q218.02 79.08 218.72 79.38Q219.41 79.67 219.82 80.26Q220.22 80.84 220.22 81.71L220.22 81.71L220.22 82.30L219.42 82.30L219.42 81.71Q219.42 81.03 219.12 80.60Q218.82 80.17 218.31 79.97Q217.80 79.78 217.16 79.78L217.16 79.78Q216.25 79.78 215.66 80.19Q215.06 80.61 215.06 81.40L215.06 81.40Q215.06 81.92 215.31 82.24Q215.55 82.55 215.99 82.74Q216.44 82.92 217.04 83.08L217.04 83.08L217.84 83.28Q218.52 83.44 219.10 83.71Q219.67 83.97 220.02 84.44Q220.37 84.91 220.37 85.67L220.37 85.67Q220.37 86.44 219.99 87Q219.61 87.56 218.92 87.87Q218.24 88.17 217.31 88.17ZM229.74 88L228.94 88L228.94 79.97L226.01 79.97L226.01 79.25L232.66 79.25L232.66 79.97L229.74 79.97L229.74 88ZM242.16 88.17L242.16 88.17Q241.22 88.17 240.52 87.84Q239.81 87.51 239.41 86.84Q239.01 86.16 239.01 85.14L239.01 85.14L239.01 79.25L239.81 79.25L239.81 85.14Q239.81 86.31 240.43 86.88Q241.05 87.45 242.16 87.45L242.16 87.45Q243.27 87.45 243.89 86.88Q244.51 86.31 244.51 85.14L244.51 85.14L244.51 79.25L245.31 79.25L245.31 85.14Q245.31 86.16 244.92 86.84Q244.52 87.51 243.81 87.84Q243.10 88.17 242.16 88.17ZM255.24 88L251.91 88L251.91 87.28L253.16 87.28L253.16 79.97L251.91 79.97L251.91 79.25L255.24 79.25Q256.95 79.25 257.91 80.12Q258.86 80.99 258.86 82.83L258.86 82.83L258.86 84.44Q258.86 86.28 257.91 87.14Q256.95 88 255.24 88L255.24 88ZM253.96 79.99L253.96 87.28L255.24 87.28Q256.61 87.28 257.34 86.61Q258.06 85.95 258.06 84.47L258.06 84.47L258.06 82.79Q258.06 81.30 257.34 80.64Q256.61 79.99 255.24 79.99L255.24 79.99L253.96 79.99ZM266.46 88L265.66 88L265.66 79.25L266.46 79.25L266.46 88ZM276.70 88.17L276.70 88.17Q275.16 88.17 274.25 87.27Q273.34 86.36 273.34 84.61L273.34 84.61L273.34 82.64Q273.34 80.89 274.25 79.98Q275.16 79.08 276.70 79.08L276.70 79.08Q278.24 79.08 279.15 79.98Q280.06 80.89 280.06 82.64L280.06 82.64L280.06 84.61Q280.06 86.36 279.15 87.27Q278.24 88.17 276.70 88.17ZM276.70 87.45L276.70 87.45Q277.92 87.45 278.59 86.71Q279.26 85.97 279.26 84.64L279.26 84.64L279.26 82.61Q279.26 81.28 278.59 80.54Q277.92 79.80 276.70 79.80L276.70 79.80Q275.49 79.80 274.81 80.54Q274.14 81.28 274.14 82.61L274.14 82.61L274.14 84.64Q274.14 85.97 274.81 86.71Q275.49 87.45 276.70 87.45Z" fill="#9a8d77" opacity="0.95"></path>
</svg>