<svg xmlns="http://www.w3.org/2000/svg" viewBox="0 0 360 480" width="360" height="480" role="img" aria-label="Brunetti Cutz monograma BC">
  <defs>
    <linearGradient id="mgGold" gradientUnits="userSpaceOnUse" x1="0" y1="0" x2="0" y2="460">
      <stop offset="0%" stop-color="#f1e2b0"></stop>
      <stop offset="18%" stop-color="#e9d7a0"></stop>
      <stop offset="50%" stop-color="#c9a14e"></stop>
      <stop offset="78%" stop-color="#9c7a32"></stop>
      <stop offset="100%" stop-color="#7a5e26"></stop>
    </linearGradient>
    <linearGradient id="mgGoldSide" gradientUnits="userSpaceOnUse" x1="0" y1="80" x2="0" y2="400">
      <stop offset="0%" stop-color="#e7c87e"></stop>
      <stop offset="100%" stop-color="#9c7a32"></stop>
    </linearGradient>
    <filter id="mgGlow" x="-20%" y="-10%" width="150%" height="130%">
      <feDropShadow dx="0" dy="6" stdDeviation="10" flood-color="#000000" flood-opacity="0.65"></feDropShadow>
      <feDropShadow dx="0" dy="0" stdDeviation="18" flood-color="#c9a14e" flood-opacity="0.18"></feDropShadow>
    </filter>
  </defs>
  <g filter="url(#mgGlow)" fill="url(#mgGold)">
    <path d="M92.25 215.33L88.25 215.33Q94.92 203.83 105.83 195.33Q116.75 186.83 130.92 184L130.92 184Q132.92 181 134.08 177.33Q135.25 173.67 135.25 168.67L135.25 168.67L135.25 116.50Q144.58 104.67 157.42 95.33Q170.25 86.00 185.92 80.83L185.92 80.83L212.75 112.33L192.08 127.00Q198.58 129.33 204.25 132.67Q209.92 136 214.92 140L214.92 140L214.92 181.83L159.08 210.67Q151.58 206.67 143.33 204.58Q135.08 202.50 126.58 202.50L126.58 202.50Q115.42 202.50 106.83 206Q98.25 209.50 92.25 215.33L92.25 215.33ZM97.25 194.17L97.25 194.17L95.58 190.17Q102.58 186.17 104.17 178.42Q105.75 170.67 105.75 160.17L105.75 160.17L105.75 148.83L100.75 148.83Q96.08 148.83 93.17 151.25Q90.25 153.67 91.08 158.50L91.08 158.50L87.92 158.50Q85.42 153.83 85.42 148.67L85.42 148.67Q85.42 142.67 88.25 138.67Q91.08 134.67 95.25 132.83L95.25 132.83Q97.75 131.67 100.42 131.08Q103.08 130.50 105.75 130.17L105.75 130.17L105.75 125.83L105.75 125.83Q105.75 118.83 108.67 115.58Q111.58 112.33 115.75 109.67L115.75 109.67Q122.92 105.33 129.92 100.83L129.92 100.83Q128.92 100.83 128.08 100.83L128.08 100.83Q122.25 100.83 117.75 98.92Q113.25 97.00 107.42 97.00L107.42 97.00Q103.08 97.00 100.08 99.00Q97.08 101.00 95.92 104.33L95.92 104.33L91.92 104.33Q94.08 99.17 98.08 94.42Q102.08 89.67 107.83 86.58Q113.58 83.50 120.92 83.50L120.92 83.50Q126.75 83.50 132.25 85.08Q137.75 86.67 143.58 86.67L143.58 86.67Q147.92 86.67 151.75 85.50Q155.58 84.33 158.42 82.67L158.42 82.67L157.42 86.33L132.75 105.67Q130.08 107.83 128.67 110.50Q127.25 113.17 127.25 118.00L127.25 118.00L127.25 159.33Q127.25 169.67 123 176.67Q118.75 183.67 111.83 187.92Q104.92 192.17 97.25 194.17ZM168.75 137.50L190.92 121.00L168.75 94.83L168.75 137.50ZM143.08 182.83L143.08 182.83Q148.92 182.83 154.17 183.83Q159.42 184.83 163.92 186.83L163.92 186.83L163.92 95.83Q161.25 97.83 159.33 101.00Q157.42 104.17 157.42 108.00L157.42 108.00L157.42 151.50Q157.42 159.67 154.83 165.25Q152.25 170.83 148.17 175Q144.08 179.17 139.58 182.83L139.58 182.83Q141.25 182.83 143.08 182.83ZM168.75 138.67L168.75 138.67L168.75 161L190.58 150Q185.75 146.50 180.25 143.67Q174.75 140.83 168.75 138.67ZM193.08 154.17L168.75 166.33L168.75 178.50L193.08 166.33L193.08 154.17ZM179.42 196.33L193.08 190L193.08 171.67L168.75 183.83L168.75 189Q174.42 192 179.42 196.33L179.42 196.33Z"></path>
    <path d="M158 423L158 423Q146 423 135.67 418.08Q125.33 413.17 117.58 404.67Q109.83 396.17 105.50 385.25Q101.17 374.33 101.17 362.33L101.17 362.33Q101.17 346.83 107.50 334.17Q113.83 321.50 124.17 312.58Q134.50 303.67 146.67 299.50L146.67 299.50L148.17 302Q137.17 307.67 130.33 318.67L130.33 318.67L174.33 291.83L174.33 291.83L174.33 291.83Q180.50 296.50 187.50 300Q194.50 303.50 202.50 306.17L202.50 306.17L207.83 301.67L209.17 303.33L189.33 324Q178.83 319.83 169 314.17L169 314.17L169 403.83Q180.67 402.33 189.08 395.50Q197.50 388.67 201.83 380L201.83 380L205 380Q204.33 392.50 198 402.17Q191.67 411.83 181.25 417.42Q170.83 423 158 423ZM156.67 308.17L156.67 370.50L127.83 382.50Q132.83 392.33 141.67 398.25Q150.50 404.17 163.17 404.17L163.17 404.17Q163.67 404.17 164.17 404.17L164.17 404.17L164.17 311.33Q161 309.50 158 307.33L158 307.33L156.67 308.17ZM121.67 353.67L121.67 353.67Q121.67 367.50 126 378.50L126 378.50L135.17 374.67L135.17 321.33L126.33 326.67Q121.67 338.67 121.67 353.67Z"></path>
  </g>
  <line x1="264" y1="78" x2="264" y2="418" stroke="url(#mgGoldSide)" stroke-width="1.2" opacity="0.75"></line>
  <g transform="rotate(-90, 290, 248)" opacity="0.9">
    <path d="M218.26 248L214.13 248L214.13 247.30L215.33 247.30L215.33 240.30L214.13 240.30L214.13 239.60L218.30 239.60Q219.02 239.60 219.58 239.86Q220.14 240.13 220.46 240.60Q220.78 241.08 220.78 241.70L220.78 241.70L220.78 241.80Q220.78 242.38 220.55 242.77Q220.32 243.15 220.00 243.37Q219.68 243.58 219.36 243.68L219.36 243.68L219.36 243.82Q219.68 243.90 220.01 244.12Q220.34 244.34 220.56 244.72Q220.78 245.11 220.78 245.70L220.78 245.70L220.78 245.82Q220.78 246.50 220.45 246.99Q220.12 247.48 219.55 247.74Q218.98 248 218.26 248L218.26 248ZM216.10 244.11L216.10 247.30L218.19 247.30Q219.09 247.30 219.55 246.88Q220.01 246.46 220.01 245.76L220.01 245.76L220.01 245.66Q220.01 244.95 219.55 244.53Q219.09 244.11 218.19 244.11L218.19 244.11L216.10 244.11ZM216.10 240.30L216.10 243.42L218.24 243.42Q219.06 243.42 219.54 243.00Q220.01 242.59 220.01 241.92L220.01 241.92L220.01 241.80Q220.01 241.12 219.54 240.71Q219.06 240.30 218.24 240.30L218.24 240.30L216.10 240.30ZM228.28 248L227.51 248L227.51 239.60L230.80 239.60Q231.58 239.60 232.17 239.86Q232.76 240.13 233.11 240.63Q233.45 241.12 233.45 241.83L233.45 241.83L233.45 241.95Q233.45 242.80 233.04 243.29Q232.63 243.78 232.08 243.93L232.08 243.93L232.08 244.08Q232.50 244.09 232.79 244.34Q233.08 244.59 233.08 245.14L233.08 245.14L233.08 248L232.31 248L232.31 245.23Q232.31 244.84 232.10 244.64Q231.89 244.44 231.47 244.44L231.47 244.44L228.28 244.44L228.28 248ZM228.28 240.30L228.28 243.74L230.72 243.74Q231.66 243.74 232.17 243.30Q232.68 242.86 232.68 242.05L232.68 242.05L232.68 241.99Q232.68 241.17 232.18 240.73Q231.68 240.30 230.72 240.30L230.72 240.30L228.28 240.30ZM243.03 248.17L243.03 248.17Q242.13 248.17 241.45 247.85Q240.78 247.53 240.39 246.88Q240.01 246.24 240.01 245.25L240.01 245.25L240.01 239.60L240.78 239.60L240.78 245.25Q240.78 246.38 241.37 246.93Q241.96 247.47 243.03 247.47L243.03 247.47Q244.10 247.47 244.69 246.93Q245.29 246.38 245.29 245.25L245.29 245.25L245.29 239.60L246.06 239.60L246.06 245.25Q246.06 246.24 245.68 246.88Q245.30 247.53 244.62 247.85Q243.93 248.17 243.03 248.17ZM253.82 248L253.05 248L253.05 239.60L254.57 239.60L258.00 247.54L258.15 247.54L258.15 239.60L258.92 239.60L258.92 248L257.39 248L253.96 240.04L253.82 240.04L253.82 248ZM271.10 248L265.98 248L265.98 239.60L271.06 239.60L271.06 240.30L266.75 240.30L266.75 243.44L270.72 243.44L270.72 244.14L266.75 244.14L266.75 247.30L271.10 247.30L271.10 248ZM280.66 248L279.90 248L279.90 240.30L277.09 240.30L277.09 239.60L283.47 239.60L283.47 240.30L280.66 240.30L280.66 248ZM292.72 248L291.95 248L291.95 240.30L289.14 240.30L289.14 239.60L295.53 239.60L295.53 240.30L292.72 240.30L292.72 248ZM302.66 248L301.90 248L301.90 239.60L302.66 239.60L302.66 248ZM320.80 248.17L320.80 248.17Q319.32 248.17 318.44 247.30Q317.56 246.43 317.56 244.75L317.56 244.75L317.56 242.85Q317.56 241.17 318.44 240.30Q319.32 239.43 320.80 239.43L320.80 239.43Q322.26 239.43 323.04 240.25Q323.81 241.08 323.81 242.49L323.81 242.49L323.81 242.55L323.04 242.55L323.04 242.47Q323.04 241.44 322.50 240.78Q321.95 240.13 320.80 240.13L320.80 240.13Q319.64 240.13 318.98 240.84Q318.33 241.54 318.33 242.83L318.33 242.83L318.33 244.77Q318.33 246.06 318.98 246.76Q319.64 247.47 320.80 247.47L320.80 247.47Q321.95 247.47 322.50 246.82Q323.04 246.16 323.04 245.13L323.04 245.13L323.04 244.95L323.81 244.95L323.81 245.11Q323.81 246.52 323.04 247.35Q322.26 248.17 320.80 248.17ZM333.47 248.17L333.47 248.17Q332.57 248.17 331.89 247.85Q331.21 247.53 330.83 246.88Q330.44 246.24 330.44 245.25L330.44 245.25L330.44 239.60L331.21 239.60L331.21 245.25Q331.21 246.38 331.81 246.93Q332.40 247.47 333.47 247.47L333.47 247.47Q334.54 247.47 335.13 246.93Q335.72 246.38 335.72 245.25L335.72 245.25L335.72 239.60L336.49 239.60L336.49 245.25Q336.49 246.24 336.11 246.88Q335.74 247.53 335.05 247.85Q334.37 248.17 333.47 248.17ZM346.36 248L345.60 248L345.60 240.30L342.79 240.30L342.79 239.60L349.17 239.60L349.17 240.30L346.36 240.30L346.36 248ZM360.87 248L355.13 248L355.13 246.94L360.03 240.42L360.03 240.30L355.28 240.30L355.28 239.60L360.75 239.60L360.75 240.66L355.85 247.18L355.85 247.30L360.87 247.30L360.87 248Z" fill="url(#mgGoldSide)"></path>
  </g>
</svg>