<svg xmlns="http://www.w3.org/2000/svg" viewBox="0 0 112 112" width="112" height="112" role="img" aria-label="Brunetti">
  <defs>
    <linearGradient id="goldGrad" gradientUnits="userSpaceOnUse" x1="0" y1="10" x2="0" y2="102">
      <stop offset="0%" stop-color="#f1e2b0"></stop>
      <stop offset="18%" stop-color="#e9d7a0"></stop>
      <stop offset="50%" stop-color="#c9a14e"></stop>
      <stop offset="78%" stop-color="#9c7a32"></stop>
      <stop offset="100%" stop-color="#7a5e26"></stop>
    </linearGradient>
    <radialGradient id="badgeBg" cx="35%" cy="28%" r="75%">
      <stop offset="0%" stop-color="#1e1e22"></stop>
      <stop offset="100%" stop-color="#0a0a0d"></stop>
    </radialGradient>
    <filter id="soft" x="-20%" y="-20%" width="140%" height="140%">
      <feDropShadow dx="0" dy="2" stdDeviation="6" flood-color="#000" flood-opacity="0.5"></feDropShadow>
      <feDropShadow dx="0" dy="0" stdDeviation="12" flood-color="#c9a14e" flood-opacity="0.15"></feDropShadow>
    </filter>
  </defs>
  <circle cx="56" cy="56" r="52" fill="url(#badgeBg)"></circle>
  <circle cx="56" cy="56" r="51.5" fill="none" stroke="url(#goldGrad)" stroke-width="1.4" opacity="0.75"></circle>
  <circle cx="56" cy="56" r="45" fill="none" stroke="#c9a14e" stroke-width="0.7" opacity="0.35"></circle>
  <path d="M45.41 51.01L44.65 51.01Q45.91 48.83 47.99 47.21Q50.06 45.60 52.75 45.06L52.75 45.06Q53.13 44.49 53.36 43.79Q53.58 43.10 53.58 42.15L53.58 42.15L53.58 32.23Q55.35 29.99 57.79 28.21Q60.23 26.44 63.20 25.46L63.20 25.46L68.30 31.44L64.38 34.23Q65.61 34.67 66.69 35.31Q67.76 35.94 68.71 36.70L68.71 36.70L68.71 44.65L58.11 50.13Q56.68 49.37 55.11 48.97Q53.55 48.58 51.93 48.58L51.93 48.58Q49.81 48.58 48.18 49.24Q46.55 49.91 45.41 51.01L45.41 51.01ZM46.36 46.99L46.36 46.99L46.04 46.23Q47.37 45.47 47.67 44.00Q47.97 42.53 47.97 40.53L47.97 40.53L47.97 38.38L47.02 38.38Q46.14 38.38 45.58 38.84Q45.03 39.30 45.19 40.22L45.19 40.22L44.58 40.22Q44.11 39.33 44.11 38.35L44.11 38.35Q44.11 37.21 44.65 36.45Q45.19 35.69 45.98 35.34L45.98 35.34Q46.45 35.12 46.96 35.01Q47.47 34.89 47.97 34.83L47.97 34.83L47.97 34.01L47.97 34.01Q47.97 32.68 48.53 32.06Q49.08 31.44 49.87 30.94L49.87 30.94Q51.23 30.11 52.56 29.26L52.56 29.26Q52.37 29.26 52.22 29.26L52.22 29.26Q51.11 29.26 50.25 28.89Q49.40 28.53 48.29 28.53L48.29 28.53Q47.47 28.53 46.90 28.91Q46.33 29.29 46.10 29.92L46.10 29.92L45.34 29.92Q45.76 28.94 46.52 28.04Q47.28 27.14 48.37 26.55Q49.46 25.96 50.85 25.96L50.85 25.96Q51.96 25.96 53.01 26.27Q54.05 26.57 55.16 26.57L55.16 26.57Q55.98 26.57 56.71 26.34Q57.44 26.12 57.98 25.81L57.98 25.81L57.79 26.50L53.10 30.18Q52.60 30.59 52.33 31.09Q52.06 31.60 52.06 32.52L52.06 32.52L52.06 40.37Q52.06 42.34 51.25 43.67Q50.44 45.00 49.13 45.80Q47.81 46.61 46.36 46.99ZM59.94 36.23L64.15 33.09L59.94 28.12L59.94 36.23ZM55.07 44.84L55.07 44.84Q56.17 44.84 57.17 45.03Q58.17 45.22 59.02 45.60L59.02 45.60L59.02 28.31Q58.52 28.69 58.15 29.29Q57.79 29.89 57.79 30.62L57.79 30.62L57.79 38.88Q57.79 40.44 57.30 41.50Q56.81 42.56 56.03 43.35Q55.26 44.14 54.40 44.84L54.40 44.84Q54.72 44.84 55.07 44.84ZM59.94 36.45L59.94 36.45L59.94 40.69L64.09 38.60Q63.17 37.94 62.13 37.40Q61.08 36.86 59.94 36.45ZM64.57 39.39L59.94 41.70L59.94 44.02L64.57 41.70L64.57 39.39ZM61.97 47.40L64.57 46.20L64.57 42.72L59.94 45.03L59.94 46.01Q61.02 46.58 61.97 47.40L61.97 47.40Z" fill="url(#goldGrad)"></path>
  <path d="M57.90 86.57L57.90 86.57Q55.62 86.57 53.66 85.64Q51.69 84.70 50.22 83.09Q48.75 81.47 47.92 79.40Q47.10 77.32 47.10 75.04L47.10 75.04Q47.10 72.10 48.30 69.69Q49.51 67.28 51.47 65.59Q53.44 63.90 55.75 63.10L55.75 63.10L56.03 63.58Q53.94 64.66 52.64 66.75L52.64 66.75L61.00 61.65L61.00 61.65L61.00 61.65Q62.17 62.53 63.51 63.20Q64.84 63.86 66.36 64.37L66.36 64.37L67.37 63.52L67.62 63.83L63.85 67.76Q61.86 66.97 59.99 65.89L59.99 65.89L59.99 82.93Q62.21 82.64 63.81 81.34Q65.41 80.05 66.23 78.40L66.23 78.40L66.83 78.40Q66.70 80.78 65.50 82.61Q64.30 84.45 62.32 85.51Q60.34 86.57 57.90 86.57ZM57.65 64.75L57.65 76.59L52.17 78.88Q53.12 80.74 54.80 81.87Q56.48 82.99 58.88 82.99L58.88 82.99Q58.98 82.99 59.07 82.99L59.07 82.99L59.07 65.35Q58.47 65.00 57.90 64.59L57.90 64.59L57.65 64.75ZM51.00 73.40L51.00 73.40Q51.00 76.03 51.82 78.11L51.82 78.11L53.56 77.39L53.56 67.25L51.88 68.27Q51.00 70.55 51.00 73.40Z" fill="url(#goldGrad)"></path>
</svg>
