<svg xmlns="http://www.w3.org/2000/svg" viewBox="120 33 260 80" width="260" height="80" role="img" aria-label="Brunetti Cutz">
  <defs>
    <linearGradient id="goldGrad" gradientUnits="userSpaceOnUse" x1="0" y1="10" x2="0" y2="102">
      <stop offset="0%" stop-color="#f1e2b0"></stop>
      <stop offset="18%" stop-color="#e9d7a0"></stop>
      <stop offset="50%" stop-color="#c9a14e"></stop>
      <stop offset="78%" stop-color="#9c7a32"></stop>
      <stop offset="100%" stop-color="#7a5e26"></stop>
    </linearGradient>
    <filter id="soft" x="-20%" y="-20%" width="140%" height="140%">
      <feDropShadow dx="0" dy="2" stdDeviation="6" flood-color="#000" flood-opacity="0.5"></feDropShadow>
      <feDropShadow dx="0" dy="0" stdDeviation="12" flood-color="#c9a14e" flood-opacity="0.15"></feDropShadow>
    </filter>
  </defs>
  <path d="M129.72 65.28L128.76 65.28Q130.36 62.52 132.98 60.48Q135.60 58.44 139 57.76L139 57.76Q139.48 57.04 139.76 56.16Q140.04 55.28 140.04 54.08L140.04 54.08L140.04 41.56Q142.28 38.72 145.36 36.48Q148.44 34.24 152.20 33L152.20 33L158.64 40.56L153.68 44.08Q155.24 44.64 156.60 45.44Q157.96 46.24 159.16 47.20L159.16 47.20L159.16 57.24L145.76 64.16Q143.96 63.20 141.98 62.70Q140 62.20 137.96 62.20L137.96 62.20Q135.28 62.20 133.22 63.04Q131.16 63.88 129.72 65.28L129.72 65.28ZM130.92 60.20L130.92 60.20L130.52 59.24Q132.20 58.28 132.58 56.42Q132.96 54.56 132.96 52.04L132.96 52.04L132.96 49.32L131.76 49.32Q130.64 49.32 129.94 49.90Q129.24 50.48 129.44 51.64L129.44 51.64L128.68 51.64Q128.08 50.52 128.08 49.28L128.08 49.28Q128.08 47.84 128.76 46.88Q129.44 45.92 130.44 45.48L130.44 45.48Q131.04 45.20 131.68 45.06Q132.32 44.92 132.96 44.84L132.96 44.84L132.96 43.80L132.96 43.80Q132.96 42.12 133.66 41.34Q134.36 40.56 135.36 39.92L135.36 39.92Q137.08 38.88 138.76 37.80L138.76 37.80Q138.52 37.80 138.32 37.80L138.32 37.80Q136.92 37.80 135.84 37.34Q134.76 36.88 133.36 36.88L133.36 36.88Q132.32 36.88 131.60 37.36Q130.88 37.84 130.60 38.64L130.60 38.64L129.64 38.64Q130.16 37.40 131.12 36.26Q132.08 35.12 133.46 34.38Q134.84 33.64 136.60 33.64L136.60 33.64Q138 33.64 139.32 34.02Q140.64 34.40 142.04 34.40L142.04 34.40Q143.08 34.40 144 34.12Q144.92 33.84 145.60 33.44L145.60 33.44L145.36 34.32L139.44 38.96Q138.80 39.48 138.46 40.12Q138.12 40.76 138.12 41.92L138.12 41.92L138.12 51.84Q138.12 54.32 137.10 56Q136.08 57.68 134.42 58.70Q132.76 59.72 130.92 60.20ZM148.08 46.60L153.40 42.64L148.08 36.36L148.08 46.60ZM141.92 57.48L141.92 57.48Q143.32 57.48 144.58 57.72Q145.84 57.96 146.92 58.44L146.92 58.44L146.92 36.60Q146.28 37.08 145.82 37.84Q145.36 38.60 145.36 39.52L145.36 39.52L145.36 49.96Q145.36 51.92 144.74 53.26Q144.12 54.60 143.14 55.60Q142.16 56.60 141.08 57.48L141.08 57.48Q141.48 57.48 141.92 57.48ZM148.08 46.88L148.08 46.88L148.08 52.24L153.32 49.60Q152.16 48.76 150.84 48.08Q149.52 47.40 148.08 46.88ZM153.92 50.60L148.08 53.52L148.08 56.44L153.92 53.52L153.92 50.60ZM150.64 60.72L153.92 59.20L153.92 54.80L148.08 57.72L148.08 58.96Q149.44 59.68 150.64 60.72L150.64 60.72ZM173.72 59.88L167.76 64.20L163.36 60.76L162 61.72L161.44 60.96L163.92 59.20L163.92 48.68L162.60 46.96L161.04 47.92L160.48 47.12L165.84 43.48L168.80 46.64L171.56 43.48L172 43.48Q172.60 44.48 173.80 44.48L173.80 44.48Q174.40 44.48 174.86 44.18Q175.32 43.88 175.60 43.48L175.60 43.48L176.80 43.48Q176.56 45.96 175.82 47.16Q175.08 48.36 174.24 48.72Q173.40 49.08 172.80 49.08L172.80 49.08Q172.16 49.08 171.18 48.72Q170.20 48.36 169.24 47.40L169.24 47.40L169.24 59.20L170.80 60.44L172.96 59L173.72 59.88ZM189.24 60.20L184.16 64.16L178.72 59.60L180 58.56L180 49.16L180 49.16Q180 48.24 179.64 47.56Q179.28 46.88 178.40 46.88L178.40 46.88Q177.88 46.88 177.50 47.10Q177.12 47.32 176.84 47.56L176.84 47.56L176.44 47L181.60 43.64Q183 44.20 183.88 45.34Q184.76 46.48 184.76 48.44L184.76 48.44L184.76 58.08L187.28 60.44L189.16 59.04L189.16 57.12L189.16 48.88L187.08 47.04L190.84 43.60L193.48 45.88L194.80 44.84L195.48 45.68L193.76 47.08L193.76 56.60L193.80 58.24Q193.80 59.16 194.04 59.88Q194.28 60.60 194.88 61L194.88 61L196.36 59.76L197.08 60.76L192.28 64.08Q191.20 64.04 190.32 63.08Q189.44 62.12 189.24 60.20L189.24 60.20ZM207.92 61.12L204.08 64.60L199.48 60.96L201 59.60L201 48.96L199.48 47.24L197.92 48.20L197.36 47.44L202.92 43.60L206 47.04L210.40 43.60L214.92 47.48L216.60 46.12L217.32 47L215.40 48.56L215.40 59.04L217.12 60.56L218.64 59.40L219.40 60.56L213.48 64.60L209.44 60.96L210.80 59.60L210.80 49.72L207.92 47.24L206.20 48.60L206.20 59.60L207.92 61.12ZM222.20 60L220.40 61.40L219.72 60.56L221.60 59L221.60 48.48L231.20 43.48L235.20 49.64L235.20 49.80L226.60 55.20L226.60 56.92L231.40 60.16L235.80 56.72L236.36 57.68L228.12 64.40L222.20 60ZM227.36 46.56L226.60 47L226.60 53.80L230.60 51.28L227.36 46.56ZM249.12 61.20L243.64 64.04L239.40 60.40L237.88 61.36L237.32 60.60L240 58.88L240 49.24Q240 48.08 239.34 47.72Q238.68 47.36 238.08 47.36L238.08 47.36L238.08 46.76L244.60 40.24L245.36 40.24L245.36 44.84L250.12 44.84L248.24 47.04L245.36 47.04L245.36 59.24L247.24 61.16L248.56 60.44L249.12 61.20ZM262.84 61.20L257.36 64.04L253.12 60.40L251.60 61.36L251.04 60.60L253.72 58.88L253.72 49.24Q253.72 48.08 253.06 47.72Q252.40 47.36 251.80 47.36L251.80 47.36L251.80 46.76L258.32 40.24L259.08 40.24L259.08 44.84L263.84 44.84L261.96 47.04L259.08 47.04L259.08 59.24L260.96 61.16L262.28 60.44L262.84 61.20ZM273.80 38.64L269.96 41.96L266.56 38.08L270.40 34.76L273.80 38.64ZM276.88 60.16L271.12 64.20L267.28 60.76L265.92 61.72L265.36 60.96L267.84 59.20L267.84 48.68L266.52 46.96L264.96 47.92L264.40 47.12L269.76 43.48L272.84 47.12L272.84 59.20L274.16 60.56L275.92 59.40L276.88 60.16ZM303.68 64.72L303.68 64.72Q300.80 64.72 298.32 63.54Q295.84 62.36 293.98 60.32Q292.12 58.28 291.08 55.66Q290.04 53.04 290.04 50.16L290.04 50.16Q290.04 46.44 291.56 43.40Q293.08 40.36 295.56 38.22Q298.04 36.08 300.96 35.08L300.96 35.08L301.32 35.68Q298.68 37.04 297.04 39.68L297.04 39.68L307.60 33.24L307.60 33.24L307.60 33.24Q309.08 34.36 310.76 35.20Q312.44 36.04 314.36 36.68L314.36 36.68L315.64 35.60L315.96 36L311.20 40.96Q308.68 39.96 306.32 38.60L306.32 38.60L306.32 60.12Q309.12 59.76 311.14 58.12Q313.16 56.48 314.20 54.40L314.20 54.40L314.96 54.40Q314.80 57.40 313.28 59.72Q311.76 62.04 309.26 63.38Q306.76 64.72 303.68 64.72ZM303.36 37.16L303.36 52.12L296.44 55Q297.64 57.36 299.76 58.78Q301.88 60.20 304.92 60.20L304.92 60.20Q305.04 60.20 305.16 60.20L305.16 60.20L305.16 37.92Q304.40 37.48 303.68 36.96L303.68 36.96L303.36 37.16ZM294.96 48.08L294.96 48.08Q294.96 51.40 296 54.04L296 54.04L298.20 53.12L298.20 40.32L296.08 41.60Q294.96 44.48 294.96 48.08ZM329.16 60.20L324.08 64.16L318.64 59.60L319.92 58.56L319.92 49.16L319.92 49.16Q319.92 48.24 319.56 47.56Q319.20 46.88 318.32 46.88L318.32 46.88Q317.80 46.88 317.42 47.10Q317.04 47.32 316.76 47.56L316.76 47.56L316.36 47L321.52 43.64Q322.92 44.20 323.80 45.34Q324.68 46.48 324.68 48.44L324.68 48.44L324.68 58.08L327.20 60.44L329.08 59.04L329.08 57.12L329.08 48.88L327 47.04L330.76 43.60L333.40 45.88L334.72 44.84L335.40 45.68L333.68 47.08L333.68 56.60L333.72 58.24Q333.72 59.16 333.96 59.88Q334.20 60.60 334.80 61L334.80 61L336.28 59.76L337 60.76L332.20 64.08Q331.12 64.04 330.24 63.08Q329.36 62.12 329.16 60.20L329.16 60.20ZM349.72 61.20L344.24 64.04L340 60.40L338.48 61.36L337.92 60.60L340.60 58.88L340.60 49.24Q340.60 48.08 339.94 47.72Q339.28 47.36 338.68 47.36L338.68 47.36L338.68 46.76L345.20 40.24L345.96 40.24L345.96 44.84L350.72 44.84L348.84 47.04L345.96 47.04L345.96 59.24L347.84 61.16L349.16 60.44L349.72 61.20ZM351.76 64L351.76 64L351.36 63.64Q352.04 61.48 353.30 59.50Q354.56 57.52 356.12 55.64L356.12 55.64L356.36 55.36L353.68 55.36L352.72 56.32L352.12 55.76L355.40 51.92L359.40 51.92L362.12 48.88Q360.32 49.44 358.44 49.44L358.44 49.44Q356.92 49.44 355.70 49.14Q354.48 48.84 353.28 48.28L353.28 48.28L352.32 49.80L351.56 49.44L354.64 43.68Q356.08 44.24 357.60 44.64Q359.12 45.04 361.00 45.04L361.00 45.04Q362.56 45.04 363.98 44.74Q365.40 44.44 366.52 43.68L366.52 43.68L366.92 44.24Q365.68 46.40 364.20 48.28Q362.72 50.16 361.16 51.92L361.16 51.92L364.04 51.92L365.00 50.96L365.56 51.56L362.32 55.36L358.12 55.36Q357.72 55.80 357.36 56.24Q357.00 56.68 356.60 57.12L356.60 57.12L355.40 58.64Q357.40 58.04 359.48 58.04L359.48 58.04Q361.32 58.04 362.88 58.44Q364.44 58.84 365.96 59.60L365.96 59.60L367.08 58.24L367.68 58.64L363.44 63.80Q362.08 63.20 360.48 62.74Q358.88 62.28 357.00 62.28L357.00 62.28Q355.32 62.28 354.06 62.74Q352.80 63.20 351.76 64Z" fill="url(#goldGrad)" filter="url(#soft)"></path>
  <path d="M132.90 86L128.60 86L128.60 85.28L129.85 85.28L129.85 77.97L128.60 77.97L128.60 77.25L132.94 77.25Q133.69 77.25 134.28 77.53Q134.86 77.80 135.19 78.29Q135.53 78.79 135.53 79.44L135.53 79.44L135.53 79.54Q135.53 80.15 135.29 80.55Q135.05 80.95 134.71 81.17Q134.38 81.40 134.05 81.50L134.05 81.50L134.05 81.65Q134.38 81.72 134.72 81.96Q135.06 82.19 135.29 82.59Q135.53 82.99 135.53 83.60L135.53 83.60L135.53 83.72Q135.53 84.44 135.18 84.95Q134.84 85.46 134.24 85.73Q133.65 86 132.90 86L132.90 86ZM130.65 81.95L130.65 85.28L132.82 85.28Q133.76 85.28 134.24 84.84Q134.72 84.40 134.72 83.66L134.72 83.66L134.72 83.56Q134.72 82.83 134.24 82.39Q133.76 81.95 132.82 81.95L132.82 81.95L130.65 81.95ZM130.65 77.97L130.65 81.22L132.88 81.22Q133.74 81.22 134.23 80.79Q134.72 80.36 134.72 79.66L134.72 79.66L134.72 79.54Q134.72 78.84 134.23 78.41Q133.74 77.97 132.88 77.97L132.88 77.97L130.65 77.97ZM142.44 86L141.60 86L144.46 77.25L145.89 77.25L148.75 86L147.91 86L147.16 83.67L143.19 83.67L142.44 86ZM145.10 77.72L143.41 82.95L146.94 82.95L145.25 77.72L145.10 77.72ZM155.97 86L155.17 86L155.17 77.25L158.60 77.25Q159.41 77.25 160.03 77.53Q160.65 77.80 161.01 78.32Q161.36 78.84 161.36 79.58L161.36 79.58L161.36 79.70Q161.36 80.59 160.94 81.09Q160.51 81.60 159.94 81.76L159.94 81.76L159.94 81.91Q160.38 81.92 160.67 82.19Q160.97 82.45 160.97 83.03L160.97 83.03L160.97 86L160.17 86L160.17 83.11Q160.17 82.71 159.96 82.50Q159.74 82.29 159.30 82.29L159.30 82.29L155.97 82.29L155.97 86ZM155.97 77.97L155.97 81.56L158.53 81.56Q159.50 81.56 160.03 81.11Q160.56 80.65 160.56 79.80L160.56 79.80L160.56 79.74Q160.56 78.89 160.04 78.43Q159.53 77.97 158.53 77.97L158.53 77.97L155.97 77.97ZM171.89 86L167.59 86L167.59 85.28L168.84 85.28L168.84 77.97L167.59 77.97L167.59 77.25L171.92 77.25Q172.67 77.25 173.26 77.53Q173.85 77.80 174.18 78.29Q174.51 78.79 174.51 79.44L174.51 79.44L174.51 79.54Q174.51 80.15 174.27 80.55Q174.04 80.95 173.70 81.17Q173.36 81.40 173.04 81.50L173.04 81.50L173.04 81.65Q173.36 81.72 173.71 81.96Q174.05 82.19 174.28 82.59Q174.51 82.99 174.51 83.60L174.51 83.60L174.51 83.72Q174.51 84.44 174.17 84.95Q173.82 85.46 173.23 85.73Q172.64 86 171.89 86L171.89 86ZM169.64 81.95L169.64 85.28L171.81 85.28Q172.75 85.28 173.23 84.84Q173.71 84.40 173.71 83.66L173.71 83.66L173.71 83.56Q173.71 82.83 173.23 82.39Q172.75 81.95 171.81 81.95L171.81 81.95L169.64 81.95ZM169.64 77.97L169.64 81.22L171.86 81.22Q172.72 81.22 173.22 80.79Q173.71 80.36 173.71 79.66L173.71 79.66L173.71 79.54Q173.71 78.84 173.22 78.41Q172.72 77.97 171.86 77.97L171.86 77.97L169.64 77.97ZM186.65 86L181.31 86L181.31 77.25L186.60 77.25L186.60 77.97L182.11 77.97L182.11 81.25L186.25 81.25L186.25 81.97L182.11 81.97L182.11 85.28L186.65 85.28L186.65 86ZM194.20 86L193.40 86L193.40 77.25L196.82 77.25Q197.64 77.25 198.26 77.53Q198.88 77.80 199.23 78.32Q199.59 78.84 199.59 79.58L199.59 79.58L199.59 79.70Q199.59 80.59 199.16 81.09Q198.74 81.60 198.16 81.76L198.16 81.76L198.16 81.91Q198.60 81.92 198.90 82.19Q199.20 82.45 199.20 83.03L199.20 83.03L199.20 86L198.40 86L198.40 83.11Q198.40 82.71 198.18 82.50Q197.96 82.29 197.52 82.29L197.52 82.29L194.20 82.29L194.20 86ZM194.20 77.97L194.20 81.56L196.75 81.56Q197.72 81.56 198.26 81.11Q198.79 80.65 198.79 79.80L198.79 79.80L198.79 79.74Q198.79 78.89 198.27 78.43Q197.75 77.97 196.75 77.97L196.75 77.97L194.20 77.97ZM217.37 86.17L217.37 86.17Q216.44 86.17 215.70 85.84Q214.96 85.51 214.54 84.83Q214.11 84.15 214.11 83.10L214.11 83.10L214.11 82.86L214.91 82.86L214.91 83.10Q214.91 84.31 215.61 84.89Q216.30 85.47 217.37 85.47L217.37 85.47Q218.46 85.47 219.05 84.97Q219.64 84.46 219.64 83.67L219.64 83.67Q219.64 83.15 219.38 82.83Q219.12 82.51 218.67 82.32Q218.21 82.13 217.61 81.97L217.61 81.97L216.81 81.78Q216.10 81.59 215.54 81.31Q214.97 81.03 214.65 80.57Q214.32 80.11 214.32 79.40L214.32 79.40Q214.32 78.69 214.69 78.16Q215.06 77.64 215.71 77.36Q216.36 77.08 217.22 77.08L217.22 77.08Q218.09 77.08 218.78 77.38Q219.47 77.67 219.88 78.26Q220.29 78.84 220.29 79.71L220.29 79.71L220.29 80.30L219.49 80.30L219.49 79.71Q219.49 79.03 219.19 78.60Q218.89 78.17 218.37 77.97Q217.86 77.78 217.22 77.78L217.22 77.78Q216.31 77.78 215.72 78.19Q215.12 78.61 215.12 79.40L215.12 79.40Q215.12 79.92 215.37 80.24Q215.61 80.55 216.06 80.74Q216.50 80.92 217.10 81.08L217.10 81.08L217.90 81.28Q218.59 81.44 219.16 81.71Q219.74 81.97 220.09 82.44Q220.44 82.91 220.44 83.67L220.44 83.67Q220.44 84.44 220.06 85Q219.67 85.56 218.99 85.87Q218.30 86.17 217.37 86.17ZM230.21 86L229.41 86L229.41 77.97L226.49 77.97L226.49 77.25L233.14 77.25L233.14 77.97L230.21 77.97L230.21 86ZM242.64 86.17L242.64 86.17Q241.70 86.17 240.99 85.84Q240.29 85.51 239.89 84.84Q239.49 84.16 239.49 83.14L239.49 83.14L239.49 77.25L240.29 77.25L240.29 83.14Q240.29 84.31 240.91 84.88Q241.52 85.45 242.64 85.45L242.64 85.45Q243.75 85.45 244.37 84.88Q244.99 84.31 244.99 83.14L244.99 83.14L244.99 77.25L245.79 77.25L245.79 83.14Q245.79 84.16 245.39 84.84Q245.00 85.51 244.29 85.84Q243.57 86.17 242.64 86.17ZM255.71 86L252.39 86L252.39 85.28L253.64 85.28L253.64 77.97L252.39 77.97L252.39 77.25L255.71 77.25Q257.42 77.25 258.38 78.12Q259.34 78.99 259.34 80.83L259.34 80.83L259.34 82.44Q259.34 84.28 258.38 85.14Q257.42 86 255.71 86L255.71 86ZM254.44 77.99L254.44 85.28L255.71 85.28Q257.09 85.28 257.81 84.61Q258.54 83.95 258.54 82.47L258.54 82.47L258.54 80.79Q258.54 79.30 257.81 78.64Q257.09 77.99 255.71 77.99L255.71 77.99L254.44 77.99ZM266.94 86L266.14 86L266.14 77.25L266.94 77.25L266.94 86ZM277.17 86.17L277.17 86.17Q275.64 86.17 274.72 85.27Q273.81 84.36 273.81 82.61L273.81 82.61L273.81 80.64Q273.81 78.89 274.72 77.98Q275.64 77.08 277.17 77.08L277.17 77.08Q278.71 77.08 279.62 77.98Q280.54 78.89 280.54 80.64L280.54 80.64L280.54 82.61Q280.54 84.36 279.62 85.27Q278.71 86.17 277.17 86.17ZM277.17 85.45L277.17 85.45Q278.40 85.45 279.07 84.71Q279.74 83.97 279.74 82.64L279.74 82.64L279.74 80.61Q279.74 79.28 279.07 78.54Q278.40 77.80 277.17 77.80L277.17 77.80Q275.96 77.80 275.29 78.54Q274.61 79.28 274.61 80.61L274.61 80.61L274.61 82.64Q274.61 83.97 275.29 84.71Q275.96 85.45 277.17 85.45Z" fill="#f6f5f3" opacity="0.6"></path>
</svg>
